<?xml version="1.0" encoding="utf-8"?><svg viewBox="0 0 54 51" xmlns="http://www.w3.org/2000/svg" xmlns:xlink="http://www.w3.org/1999/xlink"><style>:root>svg{display:none}:root>svg:target{display:block}</style><svg fill="none" viewBox="0 0 29 29" id="accordion-arrow" xmlns="http://www.w3.org/2000/svg"><path d="M7.352 18.793a1.207 1.207 0 001.701 0l5.954-5.91 5.955 5.91a1.207 1.207 0 001.686-.014 1.19 1.19 0 00.014-1.674l-6.804-6.755a1.208 1.208 0 00-1.701 0l-6.805 6.755a1.19 1.19 0 000 1.688z" fill="#242222"/></svg><svg fill="none" viewBox="0 0 54 16" id="arrow_left_slider" xmlns="http://www.w3.org/2000/svg"><path d="M47 8.75a.75.75 0 000-1.5v1.5zM6.47 7.47a.75.75 0 000 1.06l4.773 4.773a.75.75 0 001.06-1.06L8.061 8l4.242-4.243a.75.75 0 10-1.06-1.06L6.47 7.47zM47 7.25H7v1.5h40v-1.5z" fill="currentColor"/></svg><svg fill="none" viewBox="0 0 54 16" id="arrow_right_slider" xmlns="http://www.w3.org/2000/svg"><path d="M7 7.25a.75.75 0 000 1.5v-1.5zm40.53 1.28a.75.75 0 000-1.06l-4.773-4.773a.75.75 0 00-1.06 1.06L45.939 8l-4.242 4.243a.75.75 0 001.06 1.06L47.53 8.53zM7 8.75h40v-1.5H7v1.5z" fill="currentColor"/></svg><svg fill="none" viewBox="0 0 13 14" id="btn-arrow" xmlns="http://www.w3.org/2000/svg"><path d="M.426 11.652a1.006 1.006 0 101.422 1.422L.426 11.652zM12.869 1.637c0-.555-.45-1.006-1.006-1.006h-9.05a1.006 1.006 0 100 2.012h8.045v8.044a1.006 1.006 0 102.01 0v-9.05zM1.848 13.074L12.574 2.348 11.152.926.426 11.652l1.422 1.422z" fill="currentColor"/></svg><svg fill="none" viewBox="0 0 24 24" id="close" xmlns="http://www.w3.org/2000/svg"><g clip-path="url(#eclip0_78_1296)"><path d="M2 2l20 20M2 22L22 2" stroke="currentColor" stroke-width="3.5" stroke-linecap="round" stroke-linejoin="round"/></g><defs><clipPath id="eclip0_78_1296"><path fill="currentColor" d="M0 0h24v24H0z"/></clipPath></defs></svg><svg fill="none" viewBox="0 0 20 21" id="input__download" xmlns="http://www.w3.org/2000/svg"><path d="M9.25 9.94V4.25a.75.75 0 111.5 0v5.69l1.97-1.97a.75.75 0 011.06 1.06l-3.25 3.25a.747.747 0 01-1.06 0L6.22 9.03a.75.75 0 011.06-1.06l1.97 1.97z" fill="currentColor"/><path d="M4.75 17.5A1.75 1.75 0 013 15.75v-2.5a.75.75 0 111.5 0v2.5c0 .138.112.25.25.25h10.5a.25.25 0 00.25-.25v-2.5a.75.75 0 011.5 0v2.5a1.75 1.75 0 01-1.75 1.75H4.75z" fill="currentColor"/></svg><svg fill="none" viewBox="0 0 18 18" id="input__phone" xmlns="http://www.w3.org/2000/svg"><path d="M16.314 11.963l-3.857-1.728a1.142 1.142 0 00-1.13.133l-2.015 1.715a.153.153 0 01-.137.005c-1.296-.626-2.638-1.96-3.265-3.237a.156.156 0 010-.137l1.72-2.041a1.143 1.143 0 00.126-1.13l-1.717-3.85a1.143 1.143 0 00-1.188-.685A4.428 4.428 0 001 5.408C1 11.798 6.2 17 12.592 17a4.428 4.428 0 004.4-3.851 1.143 1.143 0 00-.678-1.186zm-3.722 4.057C6.741 16.02 1.98 11.26 1.98 5.407A3.447 3.447 0 014.973 1.98h.019a.163.163 0 01.15.107l1.723 3.846a.163.163 0 010 .136L5.14 8.114a1.143 1.143 0 00-.11 1.167c.725 1.483 2.219 2.965 3.718 3.69a1.143 1.143 0 001.17-.117l2.014-1.714a.158.158 0 01.131-.008l3.857 1.728a.164.164 0 01.1.163 3.448 3.448 0 01-3.429 2.997z" fill="currentColor"/></svg><svg fill="none" viewBox="0 0 30 31" id="menu" xmlns="http://www.w3.org/2000/svg"><path fill-rule="evenodd" clip-rule="evenodd" d="M4.5 7.524a1.5 1.5 0 011.5-1.5h18a1.5 1.5 0 010 3H6a1.5 1.5 0 01-1.5-1.5zm0 7.5a1.5 1.5 0 011.5-1.5h18a1.5 1.5 0 010 3H6a1.5 1.5 0 01-1.5-1.5zm0 7.5a1.5 1.5 0 011.5-1.5h9a1.5 1.5 0 010 3H6a1.5 1.5 0 01-1.5-1.5z" fill="currentColor"/></svg><svg fill="none" viewBox="0 0 18 18" id="name" xmlns="http://www.w3.org/2000/svg"><path d="M12.938 5.063a3.937 3.937 0 11-7.875 0 3.937 3.937 0 017.875 0zm-1.126 0a2.812 2.812 0 10-5.624 0 2.812 2.812 0 005.625 0zM4.22 10.125a1.969 1.969 0 00-1.969 1.969v.281c0 1.346.857 2.485 2.073 3.259C5.546 16.412 7.2 16.875 9 16.875c1.799 0 3.454-.463 4.677-1.241 1.216-.774 2.073-1.913 2.073-3.259v-.281a1.969 1.969 0 00-1.969-1.969H4.22zm-.844 1.969a.844.844 0 01.844-.844h9.562a.844.844 0 01.844.844v.281c0 .829-.529 1.659-1.552 2.31-1.016.646-2.455 1.065-4.073 1.065-1.618 0-3.057-.418-4.073-1.065-1.024-.65-1.552-1.482-1.552-2.31v-.281z" fill="currentColor"/></svg><svg fill="none" viewBox="0 0 25 26" id="phone" xmlns="http://www.w3.org/2000/svg"><path d="M21.51 17.487v2.716a1.81 1.81 0 01-1.975 1.812 17.922 17.922 0 01-7.814-2.78A17.657 17.657 0 016.287 13.8a17.92 17.92 0 01-2.78-7.85A1.811 1.811 0 015.31 3.975h2.717a1.811 1.811 0 011.811 1.558c.115.87.327 1.723.634 2.544a1.81 1.81 0 01-.408 1.91l-1.15 1.151a14.49 14.49 0 005.434 5.433l1.15-1.15a1.81 1.81 0 011.91-.407c.822.306 1.675.519 2.545.633a1.812 1.812 0 011.557 1.839z" fill="currentColor"/></svg><svg fill="none" viewBox="0 0 44 48" id="should-choose-icon1" xmlns="http://www.w3.org/2000/svg"><path d="M15.992 14.853c1.44 0 2.849-.424 4.047-1.218a7.242 7.242 0 002.683-3.245 7.18 7.18 0 00.416-4.177 7.214 7.214 0 00-1.993-3.703 7.301 7.301 0 00-3.73-1.98 7.334 7.334 0 00-4.208.411 7.273 7.273 0 00-3.27 2.663A7.193 7.193 0 008.71 7.62a7.211 7.211 0 002.135 5.11 7.32 7.32 0 005.148 2.122zm0-13.063c1.162 0 2.298.342 3.264.983a5.842 5.842 0 012.165 2.617 5.793 5.793 0 01.335 3.37 5.82 5.82 0 01-1.608 2.987 5.89 5.89 0 01-3.009 1.596 5.916 5.916 0 01-3.395-.332 5.866 5.866 0 01-2.637-2.148 5.802 5.802 0 01-.99-3.24A5.819 5.819 0 0111.838 3.5a5.906 5.906 0 014.153-1.712v.002zm26.907 24.923a2.916 2.916 0 00-.621-4.003l-1.351-1.035a1.467 1.467 0 01-.597-1.079l-.112-1.231a2.914 2.914 0 00-.991-1.95 2.957 2.957 0 00-2.075-.722l-1.703.07a1.502 1.502 0 01-1.158-.447l-.883-.87a2.964 2.964 0 00-4.078-.09l-1.262 1.141a1.498 1.498 0 01-1.175.398l-1.242-.106a2.97 2.97 0 00-2.058.608 2.928 2.928 0 00-1.1 1.83 15.525 15.525 0 00-14.1.566 15.38 15.38 0 00-5.297 4.928 15.24 15.24 0 00-2.44 6.787 2.411 2.411 0 00.617 1.877 2.446 2.446 0 001.817.803h19.427v9.631a.695.695 0 00.392.626.709.709 0 00.738-.07l2.667-2.017 2.799 2.025a.713.713 0 00.733.058.7.7 0 00.385-.622v-6.106l.763-.311a1.483 1.483 0 011.242.026l.28.13V47.3a.697.697 0 00.422.64.716.716 0 00.762-.127l2.62-2.395 2.747 2.406a.706.706 0 001.17-.524V34.033a2.946 2.946 0 001.724-1.315 2.91 2.91 0 00.348-2.131l-.365-1.65a1.456 1.456 0 01.242-1.21l.713-1.014zm-22.012 2.673l-.32 1.194c-.2.747-.095 1.541.294 2.21H3.09a1.046 1.046 0 01-.772-.34 1.03 1.03 0 01-.262-.798 13.835 13.835 0 012.273-6.258A13.966 13.966 0 019.273 20.9a14.088 14.088 0 0113.013-.213l-.043.313a1.46 1.46 0 01-.641 1.054l-1.02.708a2.915 2.915 0 00-.794 3.973l.912 1.43a1.462 1.462 0 01.187 1.22zm7.939 13.059l-2.103-1.523a.708.708 0 00-.841.009l-1.957 1.477v-7.836l.23.071a1.48 1.48 0 01.933.813l.529 1.12c.273.589.738 1.07 1.32 1.367a2.947 2.947 0 001.888.27l.001 4.232zm10.003 3.308l-2.054-1.799a.705.705 0 00-.943.01l-1.904 1.743v-7.57c.64.153 1.312.088 1.91-.182a2.944 2.944 0 001.394-1.31l.791-1.5c.168-.33.456-.583.806-.709v11.317zm2.915-19.84l-.713 1.015a2.864 2.864 0 00-.462 2.307l.365 1.653c.086.386.019.79-.188 1.128a1.545 1.545 0 01-.921.686l-1.202.323a2.89 2.89 0 00-1.848 1.472l-.791 1.5c-.184.351-.497.617-.874.744a1.556 1.556 0 01-1.15-.062l-1.13-.523a2.903 2.903 0 00-2.368-.05l-1.578.643c-.368.15-.78.155-1.151.012a1.543 1.543 0 01-.841-.781l-.53-1.118a2.87 2.87 0 00-1.782-1.552l-1.624-.512c-.38-.12-.699-.38-.89-.726a1.526 1.526 0 01-.139-1.135l.32-1.195a2.846 2.846 0 00-.36-2.324l-.913-1.43a1.526 1.526 0 01.42-2.076l1.018-.711a2.878 2.878 0 001.23-2.012l.226-1.677c.05-.369.233-.707.515-.953a1.557 1.557 0 011.152-.376l1.243.105a2.91 2.91 0 002.242-.756l1.261-1.14a1.55 1.55 0 012.14.046l.883.872a2.858 2.858 0 002.21.85l1.703-.072c.397-.013.784.125 1.083.384.298.26.486.623.524 1.016l.111 1.231a2.853 2.853 0 001.141 2.061l1.355 1.035a1.528 1.528 0 01.313 2.098zm-10.368-7.762c-1.649.001-3.26.487-4.63 1.397a8.29 8.29 0 00-3.07 3.716 8.22 8.22 0 00-.473 4.781 8.258 8.258 0 002.283 4.237 8.357 8.357 0 004.27 2.264 8.394 8.394 0 004.816-.472 8.324 8.324 0 003.742-3.048 8.233 8.233 0 001.405-4.598 8.255 8.255 0 00-2.447-5.851 8.379 8.379 0 00-5.896-2.426zm0 15.156c-1.37 0-2.71-.404-3.85-1.16a6.89 6.89 0 01-2.552-3.087 6.832 6.832 0 01-.394-3.974 6.864 6.864 0 011.896-3.522 6.946 6.946 0 013.549-1.883 6.977 6.977 0 014.003.392 6.92 6.92 0 013.11 2.533 6.843 6.843 0 011.168 3.822 6.86 6.86 0 01-2.031 4.862 6.963 6.963 0 01-4.899 2.017z" fill="currentColor"/></svg><svg fill="none" viewBox="0 0 43 51" id="should-choose-icon2" xmlns="http://www.w3.org/2000/svg"><path d="M42.609 23.548l-.548-1.238a3.165 3.165 0 010-2.662l.548-1.238c.872-1.964.246-4.228-1.51-5.504l-1.112-.807c-.788-.573-1.246-1.348-1.364-2.302l-.162-1.342c-.251-2.127-1.95-3.78-4.13-4.031l-1.375-.158c-.978-.11-1.772-.557-2.359-1.331l-.822-1.08C28.467.136 26.148-.47 24.135.382l-1.268.534a3.39 3.39 0 01-2.728 0L18.87.382c-2.012-.851-4.332-.24-5.64 1.473l-.827 1.085c-.587.77-1.38 1.217-2.359 1.331L8.67 4.43c-2.18.246-3.873 1.904-4.13 4.031l-.162 1.342c-.112.955-.57 1.73-1.364 2.302l-1.112.807C.14 14.188-.481 16.451.39 18.415l.548 1.238a3.165 3.165 0 010 2.662l-.548 1.238c-.872 1.964-.246 4.228 1.51 5.504l1.112.808c.788.572 1.246 1.347 1.364 2.302l.162 1.341c.212 1.784 1.447 3.235 3.124 3.802L2.41 45.214a.617.617 0 00.57.955l5.17-.328 2.298 4.533a.636.636 0 00.564.344h.006c.24 0 .458-.131.565-.338l4.449-8.52c.313.065.637.103.961.103.626 0 1.263-.125 1.873-.382l1.268-.534a3.39 3.39 0 012.728 0l1.269.534c.922.388 1.912.47 2.834.278l4.449 8.52a.631.631 0 00.565.339h.005c.24 0 .458-.136.565-.344l2.297-4.533 5.17.328a.635.635 0 00.587-.306.595.595 0 00-.017-.649l-5.254-7.904c1.677-.567 2.912-2.018 3.125-3.802l.162-1.342c.112-.954.57-1.729 1.364-2.301l1.112-.808c1.766-1.281 2.387-3.545 1.515-5.509zm-31.58 25.174L9.104 44.92a.634.634 0 00-.609-.344l-4.332.273 4.84-7.277 1.04.12c.979.11 1.772.556 2.36 1.331l.826 1.085c.436.573.99 1.02 1.605 1.332l-3.807 7.282zm23.48-4.146a.634.634 0 00-.609.344l-1.922 3.801-3.801-7.281a4.645 4.645 0 001.604-1.331l.827-1.086c.587-.77 1.38-1.216 2.359-1.33l1.04-.12 4.84 7.276-4.337-.273zm5.836-16.517l-1.112.807c-1.068.775-1.71 1.866-1.867 3.153l-.162 1.342c-.19 1.577-1.398 2.76-3.019 2.946l-1.375.158c-1.319.152-2.437.78-3.23 1.822l-.828 1.085c-.972 1.277-2.627 1.708-4.119 1.075l-1.269-.535a4.71 4.71 0 00-3.728 0l-1.269.535c-1.492.627-3.147.196-4.12-1.075l-.826-1.085c-.794-1.042-1.912-1.67-3.231-1.822l-1.375-.158c-1.616-.186-2.829-1.364-3.019-2.946l-.162-1.342c-.15-1.287-.799-2.378-1.867-3.153l-1.112-.807c-1.308-.949-1.75-2.564-1.101-4.02l.548-1.238a4.396 4.396 0 000-3.638l-.548-1.239c-.643-1.456-.201-3.07 1.101-4.02l1.112-.807c1.068-.775 1.71-1.866 1.867-3.153l.162-1.342c.19-1.576 1.398-2.76 3.019-2.945l1.375-.159a4.615 4.615 0 003.23-1.821l.828-1.086a3.415 3.415 0 012.727-1.364c.464 0 .934.093 1.392.284l1.269.535a4.71 4.71 0 003.728 0l1.269-.535c1.492-.627 3.147-.196 4.12 1.075l.827 1.085c.793 1.042 1.911 1.67 3.23 1.822l1.375.158c1.616.186 2.829 1.364 3.019 2.946l.162 1.342c.15 1.287.8 2.378 1.867 3.152l1.112.808c1.308.949 1.75 2.563 1.101 4.02l-.548 1.238a4.396 4.396 0 000 3.638l.548 1.238c.649 1.468.201 3.082-1.101 4.026zM21.503 6.131c-8.39 0-15.215 6.66-15.215 14.848 0 8.187 6.825 14.848 15.215 14.848s15.215-6.66 15.215-14.848S29.893 6.13 21.503 6.13zm0 28.457c-7.691 0-13.946-6.103-13.946-13.61 0-7.505 6.255-13.609 13.946-13.609s13.946 6.104 13.946 13.61c0 7.506-6.255 13.61-13.946 13.61zm7.993-18.497H25.65c-.508 0-1-.196-1.252-.496-.19-.229-.251-.518-.173-.878l.352-1.778c.263-1.19.145-2.144-.352-2.842-.458-.644-1.213-1.048-2.253-1.195-.81-.114-1.442.3-1.615 1.058l-.592 2.684c-.118.524-.341.916-.744 1.282-1.716 1.576-1.81 1.69-2.744 2.75-.118.13-.252.288-.403.452a2.44 2.44 0 00-1.056-.246h-1.124c-1.347 0-2.442 1.07-2.442 2.384v7.528c0 1.314 1.095 2.383 2.442 2.383h1.124c.637 0 1.213-.245 1.649-.632a7.187 7.187 0 004.276 1.412h7.395c1.24 0 2.252-.987 2.252-2.198 0-.518-.184-.993-.492-1.369.57-.398.945-1.053.945-1.79 0-.517-.184-.992-.492-1.368.57-.398.945-1.053.945-1.79 0-.512-.185-.987-.498-1.363.576-.398.95-1.053.95-1.79-.005-1.21-1.011-2.198-2.252-2.198zM14.823 27.94H13.7c-.648 0-1.174-.513-1.174-1.145v-7.528c0-.633.526-1.145 1.174-1.145h1.123c.649 0 1.174.512 1.174 1.145v7.528c0 .627-.525 1.145-1.174 1.145zm14.673-8.69h-.492a.623.623 0 00-.632.617c0 .338.285.617.632.617.57 0 1.023.42 1.023.96 0 .529-.442.96-.984.96h-.453a.623.623 0 00-.631.616c0 .344.285.616.631.616.543 0 .984.431.984.96 0 .53-.442.96-.984.96h-.452a.623.623 0 00-.632.617c0 .338.285.616.632.616.542 0 .983.431.983.96 0 .53-.441.96-.983.96h-7.39a5.905 5.905 0 01-3.6-1.227c.068-.224.118-.453.118-.693v-7.527c0-.497-.156-.955-.425-1.337.146-.163.28-.322.397-.453.911-1.036.99-1.123 2.655-2.656a3.58 3.58 0 001.112-1.92l.593-2.678c.017-.071.033-.093.033-.093.006-.005.062-.022.157-.005.676.098 1.146.327 1.397.676.285.404.341 1.042.151 1.882v.01l-.352 1.779c-.19.916.129 1.538.436 1.904.492.589 1.347.954 2.236.954H29.5c.543 0 .984.431.984.96a.983.983 0 01-.99.966z" fill="currentColor"/></svg><svg fill="none" viewBox="0 0 45 47" id="should-choose-icon3" xmlns="http://www.w3.org/2000/svg"><path d="M40.894 9.075c-1.817 0-3.295 1.774-3.295 3.955 0 .018 0 .036.002.054l.079.953a5.812 5.812 0 01-1.583.141c-.825-.027-2.874.282-4.078 3.786-1.245 3.623-1.96 4.838-2.288 5.243-.165-.521-.429-2.041-.193-6.24.171-3.065-.207-4.647-1.267-5.288-.894-.542-2.083-.348-3.99.683l-.474-5.365a2.682 2.682 0 00-2.683-2.464h-2.93V1.501a.653.653 0 00-.651-.654H9.705a.653.653 0 00-.652.654v3.032h-2.93A2.682 2.682 0 003.44 6.996L.495 40.375a2.64 2.64 0 00.696 2.062c.524.574 1.21.877 1.987.877h5.875v3.032c0 .361.292.654.652.654h7.838c.36 0 .652-.293.652-.654v-3.032h5.875c.776 0 1.463-.303 1.987-.877a2.641 2.641 0 00.696-2.062L24.407 13.79c1.638-.948 2.71-1.282 3.19-.992.557.338.772 1.716.64 4.097-.118 2.098-.127 3.792-.028 5.034.101 1.255.327 2.562 1.237 2.741.07.014.138.022.208.022.891 0 1.851-1.217 3.598-6.302.92-2.678 2.265-2.923 2.799-2.904a7.212 7.212 0 001.737-.136L40.244 45a.653.653 0 001.3 0l2.642-31.916a.647.647 0 00.002-.054c0-2.181-1.477-3.955-3.294-3.955zM3.298 23.44l19.647-11.38.572 6.484L2.664 30.622l.634-7.182zm-.774 8.773l21.12-12.232.572 6.483L1.89 39.395l.634-7.182zM22.509 7.111l.31 3.512-19.38 11.225.633-7.182L19.31 5.84h1.815c.725 0 1.32.547 1.384 1.271zM10.357 2.155h6.534v2.378h-6.534V2.155zM4.739 7.11a1.384 1.384 0 011.384-1.27h10.58l-12.49 7.233.526-5.963zM2.153 41.554a1.35 1.35 0 01-.33-.61l22.52-13.043.572 6.483-13.159 7.623H3.178a1.32 1.32 0 01-1.025-.453zm14.738 4.138h-6.534v-2.378h6.534v2.378zm8.204-4.138a1.32 1.32 0 01-1.025.453h-9.706l10.678-6.185.412 4.667c.037.412-.08.76-.359 1.065zm15.799-4.509l-1.832-22.12c.853-.403 1.608-1.025 2.293-1.88a.655.655 0 00-.1-.919.65.65 0 00-.916.1c-.44.548-.896.97-1.395 1.281l-.041-.504c.01-1.448.9-2.621 1.99-2.621 1.092 0 1.981 1.173 1.992 2.621l-1.991 24.042z" fill="currentColor"/></svg><svg fill="none" viewBox="0 0 40 40" id="social-instagram" xmlns="http://www.w3.org/2000/svg"><rect x=".5" y=".5" width="39" height="39" rx="19.5" stroke="currentColor"/><path d="M20 11.807h4.096c.964 0 1.446.241 1.808.362.482.24.843.361 1.204.723.362.361.603.723.723 1.204.12.362.241.844.362 1.808v8.192c0 .964-.241 1.446-.362 1.808-.24.482-.361.843-.723 1.204-.361.362-.723.603-1.204.723-.362.12-.844.241-1.808.362h-8.192c-.964 0-1.446-.241-1.808-.362-.482-.24-.843-.361-1.204-.723-.362-.361-.603-.723-.723-1.204-.12-.362-.241-.844-.362-1.808V20v-4.096c0-.964.241-1.446.362-1.808.24-.482.361-.843.723-1.204.361-.362.723-.603 1.204-.723.362-.12.844-.241 1.808-.362H20zM20 10h-4.096c-1.085 0-1.808.241-2.41.482a5.263 5.263 0 00-1.807 1.205c-.603.602-.844 1.084-1.205 1.807-.241.602-.361 1.325-.482 2.41v8.192c0 1.085.241 1.808.482 2.41a5.263 5.263 0 001.205 1.807c.602.603 1.084.844 1.807 1.205.602.241 1.325.361 2.41.482h8.192c1.085 0 1.808-.241 2.41-.482a5.263 5.263 0 001.807-1.205c.603-.602.844-1.084 1.205-1.807.241-.602.361-1.325.482-2.41V20v-4.096c0-1.085-.241-1.808-.482-2.41a5.263 5.263 0 00-1.205-1.807c-.602-.603-1.084-.844-1.807-1.205-.602-.241-1.325-.361-2.41-.482H20z" fill="currentColor"/><path d="M20 14.82A5.142 5.142 0 0014.82 20c0 2.892 2.288 5.18 5.18 5.18s5.18-2.288 5.18-5.18-2.288-5.18-5.18-5.18zm0 8.553A3.368 3.368 0 0116.627 20 3.368 3.368 0 0120 16.627 3.368 3.368 0 0123.373 20c0 1.807-1.566 3.373-3.373 3.373zM25.301 15.904a1.205 1.205 0 100-2.41 1.205 1.205 0 000 2.41z" fill="currentColor"/></svg><svg fill="none" viewBox="0 0 40 40" id="social-telegram" xmlns="http://www.w3.org/2000/svg"><rect x=".5" y=".5" width="39" height="39" rx="19.5" stroke="currentColor"/><path d="M28 12.602l-3.005 15.69s-.42 1.088-1.576.566l-6.934-5.505-.033-.017c.937-.87 8.2-7.633 8.518-7.94.491-.475.186-.757-.384-.399l-10.73 7.056-4.138-1.442s-.652-.24-.714-.762c-.064-.523.735-.805.735-.805l16.874-6.855S28 11.558 28 12.602z" fill="currentColor"/></svg><svg fill="none" viewBox="0 0 40 40" id="social-viber" xmlns="http://www.w3.org/2000/svg"><rect x=".5" y=".5" width="39" height="39" rx="19.5" stroke="currentColor"/><path d="M29.19 11.337c-.596-.545-3.006-2.297-8.373-2.32 0 0-6.332-.38-9.418 2.452-1.715 1.716-2.316 4.229-2.385 7.346-.07 3.117-.146 8.959 5.485 10.547h.005l-.005 2.419s-.038.98.606 1.177c.778.244 1.238-.502 1.983-1.304.409-.441.97-1.087 1.397-1.58 2.448.227 4.915.038 7.3-.557l-.15.032c.777-.253 5.18-.816 5.891-6.657.744-6.03-.354-9.834-2.337-11.555zm.651 11.115c-.607 4.875-4.172 5.185-4.829 5.395-1.431.364-3.076.572-4.768.572-.486 0-.968-.017-1.445-.051l.064.004s-2.439 2.939-3.197 3.703c-.248.248-.521.228-.517-.267 0-.323.02-4.018.02-4.018-4.768-1.322-4.492-6.298-4.436-8.897.056-2.6.544-4.735 1.997-6.17 2.612-2.366 7.99-2.015 7.99-2.015 4.543.019 6.718 1.388 7.224 1.847 1.674 1.435 2.527 4.868 1.898 9.897zm-6.51-3.788v.014a.304.304 0 01-.607.015 1.454 1.454 0 00-.918-1.493 1.452 1.452 0 00-.614-.096h.003a.304.304 0 01.017-.607h.017-.002l.07-.001a2.037 2.037 0 012.032 2.175l.002-.007zm.95.53c.047-1.987-1.194-3.543-3.552-3.717a.305.305 0 01-.186-.537.304.304 0 01.229-.07h-.002.018a4.107 4.107 0 014.099 4.349v-.011a.305.305 0 01-.607-.008v-.008l.002.003zm2.2.63v.002a.304.304 0 01-.607.003c-.023-3.822-2.572-5.903-5.662-5.925a.303.303 0 010-.606c3.46.024 6.24 2.41 6.268 6.525h.002zm-.525 4.598v.009c-.505.89-1.453 1.875-2.427 1.56l-.01-.013a18.042 18.042 0 01-4.83-2.68l.04.03a12.35 12.35 0 01-1.968-1.962l-.02-.025a15.081 15.081 0 01-1.402-2.106l-.04-.08a13.655 13.655 0 01-1.192-2.512l-.03-.098c-.315-.975.665-1.922 1.56-2.428h.01a.851.851 0 011.12.18v.003s.582.693.83 1.036c.234.319.55.83.712 1.115a.976.976 0 01-.172 1.246h-.002l-.562.45a.822.822 0 00-.247.66v-.003a5.9 5.9 0 003.91 3.94l.041.012a.825.825 0 00.656-.247l.45-.562a.977.977 0 011.252-.171l-.005-.002c.814.463 1.517.972 2.158 1.549l-.012-.01a.833.833 0 01.177 1.11l.002-.003.002.002z" fill="currentColor"/></svg><svg fill="none" viewBox="0 0 40 40" id="social-whatsapp" xmlns="http://www.w3.org/2000/svg"><rect x=".5" y=".5" width="39" height="39" rx="19.5" stroke="currentColor"/><path d="M27.927 12.063A10.428 10.428 0 0020.537 9c-5.78 0-10.464 4.667-10.464 10.427 0 1.823.512 3.646 1.39 5.177L10 30l5.561-1.458c1.537.802 3.22 1.24 4.976 1.24 5.78 0 10.463-4.667 10.463-10.428-.073-2.698-1.098-5.323-3.073-7.291zm-2.342 11.083c-.22.583-1.244 1.166-1.756 1.24a4.104 4.104 0 01-1.61-.073c-.365-.146-.878-.292-1.463-.584-2.634-1.094-4.317-3.719-4.463-3.937-.147-.146-1.098-1.386-1.098-2.698 0-1.313.659-1.896.878-2.188.22-.291.512-.291.732-.291h.512c.146 0 .366-.073.585.437.22.51.732 1.823.805 1.896a.463.463 0 010 .437c-.073.146-.146.292-.292.438-.147.146-.293.364-.366.437-.147.146-.293.292-.147.51.147.293.659 1.095 1.464 1.824 1.024.875 1.83 1.166 2.122 1.312.293.146.439.073.585-.073.146-.145.659-.729.805-1.02.146-.292.366-.22.585-.146.22.073 1.537.729 1.756.875.293.145.44.218.513.291.073.22.073.73-.147 1.313z" fill="currentColor"/></svg></svg>