<svg width="120" height="120" viewBox="0 0 120 120" fill="none" xmlns="http://www.w3.org/2000/svg">
<g filter="url(#filter0_d_205_1108)">
<rect x="10" y="6" width="100" height="100" rx="50" fill="white"/>
<rect x="10.5" y="6.5" width="99" height="99" rx="49.5" stroke="#FDF4EB" stroke-linecap="round"/>
<path d="M49.8952 27.1113C47.9278 27.1113 46.3082 28.7577 46.3082 30.7734V31.4876H42.0775C39.096 31.4876 36.6667 33.9771 36.6667 37.0341V79.9292C36.6667 82.9862 39.096 85.4757 42.0775 85.4757H55.4378C55.5551 85.4762 55.6713 85.4528 55.7797 85.407C55.8882 85.3611 55.9867 85.2937 56.0696 85.2086C56.1525 85.1235 56.2182 85.0224 56.2629 84.9111C56.3075 84.7998 56.3303 84.6806 56.3298 84.5602C56.3294 84.4404 56.3059 84.3219 56.2609 84.2115C56.2158 84.101 56.15 84.0007 56.0671 83.9164C55.9843 83.832 55.8861 83.7653 55.7781 83.7199C55.6702 83.6745 55.5545 83.6513 55.4378 83.6518H42.0775C40.0478 83.6518 38.4437 82.0053 38.4437 79.9292V37.0341C38.4437 34.958 40.0478 33.3115 42.0775 33.3115H46.3082V34.0311C46.3082 36.0467 47.9278 37.6931 49.8952 37.6931C51.8626 37.6931 53.4769 36.0468 53.4769 34.0311V33.3115H66.8894V34.0311C66.8894 36.0467 68.5089 37.6931 70.4763 37.6931C72.4437 37.6931 74.0649 36.0467 74.0649 34.0311V33.3115H78.2957C80.3255 33.3115 81.9295 34.958 81.9295 37.0341V57.5528C81.9304 57.7946 82.0249 58.0262 82.1922 58.1966C82.3595 58.3669 82.5858 58.4621 82.8214 58.4612C83.0559 58.4602 83.2805 58.3642 83.4462 58.1941C83.612 58.0239 83.7056 57.7934 83.7065 57.5528V37.0341C83.7065 33.9771 81.2772 31.4876 78.2957 31.4876H74.0649V30.7734C74.0649 28.7577 72.4437 27.1113 70.4763 27.1113C68.5089 27.1113 66.8894 28.7577 66.8894 30.7734V31.4876H53.4769V30.7734C53.4769 28.7577 51.8626 27.1113 49.8952 27.1113ZM49.8952 28.9352C50.9152 28.9352 51.6999 29.743 51.6999 30.7734V32.4031V34.0311C51.6999 35.0614 50.9151 35.8692 49.8952 35.8692C48.8753 35.8692 48.0852 35.0614 48.0852 34.0311V32.4031V30.7734C48.0852 29.743 48.8753 28.9352 49.8952 28.9352ZM70.4763 28.9352C71.4962 28.9352 72.2879 29.743 72.2879 30.7734V34.0311C72.2879 35.0614 71.4962 35.8692 70.4763 35.8692C69.4563 35.8692 68.6663 35.0614 68.6663 34.0311V30.7734C68.6663 29.743 69.4563 28.9352 70.4763 28.9352ZM48.2761 42.1228C48.1593 42.1223 48.0435 42.1455 47.9354 42.191C47.8274 42.2365 47.7291 42.3034 47.6462 42.388C47.5634 42.4725 47.4976 42.573 47.4526 42.6837C47.4076 42.7943 47.3844 42.913 47.3842 43.0329C47.3837 43.1533 47.4064 43.2726 47.4511 43.3838C47.4958 43.4951 47.5615 43.5962 47.6444 43.6813C47.7273 43.7665 47.8258 43.8339 47.9342 43.8797C48.0427 43.9256 48.1589 43.9489 48.2761 43.9484H72.0971C72.2138 43.948 72.3292 43.9239 72.4368 43.8777C72.5445 43.8314 72.6422 43.7638 72.7243 43.6788C72.8065 43.5938 72.8716 43.493 72.9158 43.3822C72.96 43.2714 72.9826 43.1527 72.9821 43.0329C72.9817 42.792 72.8883 42.561 72.7225 42.3905C72.5567 42.22 72.3318 42.1237 72.0971 42.1228H48.2761ZM48.2761 51.5272C48.1589 51.5267 48.0427 51.5501 47.9342 51.5959C47.8258 51.6418 47.7273 51.7092 47.6444 51.7943C47.5615 51.8794 47.4958 51.9805 47.4511 52.0918C47.4064 52.2031 47.3837 52.3223 47.3842 52.4427C47.3844 52.5626 47.4076 52.6813 47.4526 52.792C47.4976 52.9026 47.5634 53.0031 47.6462 53.0877C47.7291 53.1722 47.8274 53.2391 47.9354 53.2846C48.0435 53.3301 48.1593 53.3533 48.2761 53.3529H72.0971C72.3318 53.3519 72.5567 53.2557 72.7225 53.0851C72.8883 52.9146 72.9817 52.6836 72.9821 52.4427C72.9826 52.3229 72.96 52.2043 72.9158 52.0934C72.8716 51.9826 72.8065 51.8818 72.7243 51.7968C72.6422 51.7118 72.5445 51.6442 72.4368 51.598C72.3292 51.5517 72.2138 51.5277 72.0971 51.5272H48.2761ZM78.8267 58.9599C77.5728 58.9629 76.3179 59.4494 75.363 60.4275L61.22 74.9189C61.2166 74.9219 61.2132 74.9248 61.2099 74.9279C61.2065 74.9314 61.2032 74.935 61.1998 74.9385L60.2905 75.8701C60.1816 75.9799 60.1022 76.1167 60.0598 76.2673L57.8577 84.3127C57.8137 84.4689 57.8112 84.6344 57.8504 84.792C57.8897 84.9495 57.9693 85.0935 58.081 85.2088C58.1927 85.3242 58.3324 85.4068 58.4857 85.4481C58.6389 85.4894 58.8002 85.4879 58.9527 85.4437L66.8103 83.1816C66.9581 83.141 67.0932 83.0619 67.2025 82.9519L82.2687 67.5165C83.1109 66.6539 83.5837 65.5505 83.6864 64.4191C83.6991 64.3594 83.7058 64.2985 83.7066 64.2374V64.0843C83.7091 63.9904 83.7092 63.8967 83.7066 63.8028V63.6853C83.7067 63.6315 83.7022 63.5779 83.6931 63.5249C83.6008 62.3877 83.1341 61.2785 82.291 60.4133C81.3383 59.4375 80.0806 58.9568 78.8267 58.9599ZM78.8267 60.7713C79.6218 60.7691 80.4171 61.078 81.0306 61.7064C81.5614 62.251 81.8617 62.9331 81.9312 63.6354C81.9302 63.652 81.9296 63.6686 81.9295 63.6852V64.2374C81.9293 64.2493 81.9293 64.2612 81.9295 64.273C81.8593 64.9803 81.5567 65.6704 81.0167 66.2234L67.4932 80.0735L63.0942 75.5744L76.6159 61.7207C77.235 61.0866 78.0316 60.7735 78.8267 60.7713ZM48.2761 60.9388C48.1594 60.9383 48.0438 60.9614 47.9358 61.0068C47.8279 61.0522 47.7297 61.119 47.6468 61.2033C47.564 61.2877 47.4982 61.388 47.4531 61.4984C47.408 61.6089 47.3846 61.7274 47.3842 61.8471C47.3837 61.9675 47.4064 62.0868 47.4511 62.198C47.4958 62.3093 47.5615 62.4104 47.6444 62.4956C47.7273 62.5807 47.8258 62.6481 47.9342 62.6939C48.0427 62.7398 48.1589 62.7631 48.2761 62.7626H67.4863C67.6036 62.7631 67.7198 62.7397 67.8282 62.6939C67.9366 62.6481 68.0351 62.5806 68.118 62.4955C68.2009 62.4104 68.2666 62.3093 68.3113 62.198C68.3559 62.0868 68.3787 61.9675 68.3782 61.8471C68.3773 61.6053 68.2828 61.3737 68.1156 61.2033C67.9483 61.033 67.7219 60.9378 67.4863 60.9388H48.2761ZM61.836 76.8621L66.2334 81.3649L66.1084 81.4913L59.9965 83.2475L61.7145 76.9868L61.836 76.8621Z" fill="#367373"/>
</g>
<defs>
<filter id="filter0_d_205_1108" x="0" y="0" width="120" height="120" filterUnits="userSpaceOnUse" color-interpolation-filters="sRGB">
<feFlood flood-opacity="0" result="BackgroundImageFix"/>
<feColorMatrix in="SourceAlpha" type="matrix" values="0 0 0 0 0 0 0 0 0 0 0 0 0 0 0 0 0 0 127 0" result="hardAlpha"/>
<feOffset dy="4"/>
<feGaussianBlur stdDeviation="5"/>
<feComposite in2="hardAlpha" operator="out"/>
<feColorMatrix type="matrix" values="0 0 0 0 0.922735 0 0 0 0 0.846969 0 0 0 0 0.771204 0 0 0 0.5 0"/>
<feBlend mode="normal" in2="BackgroundImageFix" result="effect1_dropShadow_205_1108"/>
<feBlend mode="normal" in="SourceGraphic" in2="effect1_dropShadow_205_1108" result="shape"/>
</filter>
</defs>
</svg>
