<svg width="120" height="120" viewBox="0 0 120 120" fill="none" xmlns="http://www.w3.org/2000/svg">
<g filter="url(#filter0_d_205_888)">
<rect x="10" y="6" width="100" height="100" rx="50" fill="white"/>
<rect x="10.5" y="6.5" width="99" height="99" rx="49.5" stroke="#FDF4EB" stroke-linecap="round"/>
<path d="M89.3984 36.4609H88.6655V35.7377C88.6655 34.1539 87.3591 32.8648 85.7532 32.8648H78.096V27.8267C78.096 27.4318 77.7719 27.1113 77.371 27.1113C76.9701 27.1113 76.646 27.4318 76.646 27.8267V32.8648H48.5748V31.422C48.5748 31.0271 48.2507 30.7066 47.8498 30.7066H45.6597C44.86 30.7066 44.2097 31.3483 44.2097 32.1373V32.8648H42.0195C37.1991 32.8648 33.2763 36.7348 33.2763 41.4919V50.1225C33.2763 51.31 34.2557 52.2764 35.4592 52.2764H38.3779V55.1535C38.3779 55.5498 38.7049 55.871 39.1073 55.8689V57.311C39.1073 57.7066 39.4313 58.0263 39.8323 58.0263H40.5652V63.6418C40.5652 64.0374 40.8893 64.3571 41.2902 64.3571C41.6911 64.3571 42.0152 64.0374 42.0152 63.6418V58.0263H42.7481C43.149 58.0263 43.4731 57.7066 43.4731 57.311V55.8689C43.8755 55.871 44.2024 55.5498 44.2024 55.1535V52.2764H47.4801C48.4501 52.2764 49.3121 51.634 49.5789 50.7148L49.9798 49.3313C50.3351 48.1017 51.4899 47.2425 52.7869 47.2425H68.9895C70.1981 47.2425 71.1804 48.2118 71.1804 49.4036V63.7806C71.1804 65.7649 69.5434 67.3802 67.5316 67.3802H29.9667C28.6226 67.3451 27.5177 68.6857 27.8309 69.9776L29.0358 75.6259C29.9261 79.8951 34.0085 82.7837 38.3787 82.4754V83.2029C38.3787 83.9919 39.029 84.6336 39.8286 84.6336H44.2104C45.0101 84.6336 45.6604 83.9919 45.6604 83.2029V82.4754H75.5535V83.2029C75.5535 83.9919 76.2038 84.6336 77.0035 84.6336H81.3845C82.1842 84.6336 82.8345 83.9919 82.8345 83.2029V82.4754C85.8837 82.7815 88.6865 80.5332 88.6662 77.4451V45.8033H89.3992C90.6026 45.8033 91.5821 44.8368 91.5821 43.6494V38.6148C91.5821 37.4273 90.6019 36.4609 89.3984 36.4609ZM45.6597 32.138H47.1248V32.8656H45.6597V32.138ZM42.0224 56.5957H40.5572V55.8689H42.0224V56.5957ZM42.7518 54.4382H39.8279V52.2764H42.7518V54.4382ZM29.3969 69.0784C29.5361 68.9089 29.7442 68.8109 29.966 68.8109H67.5301C70.3416 68.8109 72.6289 66.5547 72.6289 63.7806V49.4036C72.6289 47.4228 70.9955 45.8118 68.9881 45.8118H52.7855C50.844 45.8118 49.1164 47.0973 48.5835 48.9386L48.1826 50.3228C48.0934 50.6311 47.8049 50.8464 47.4786 50.8464C45.4008 50.8464 41.1865 50.8464 39.1015 50.8464H35.4577C35.0532 50.8464 34.7248 50.5217 34.7248 50.1232V41.4926C34.7248 37.5246 37.9966 34.2962 42.0181 34.2962H44.2082V45.8076C44.2082 46.2024 44.5323 46.5229 44.9332 46.5229C45.3341 46.5229 45.6582 46.2024 45.6582 45.8076V34.2962H47.8484H85.7518C86.558 34.2962 87.2141 34.9429 87.2141 35.7384C87.2141 42.1378 87.2141 67.0361 87.2141 73.8533H30.1393L29.2497 69.6829C29.204 69.4683 29.2577 69.2487 29.3976 69.0784H29.3969ZM44.2104 83.2029H39.8279V82.4754H44.2104V83.2029ZM81.3852 83.2029H77.0027V82.4754H81.3845L81.3852 83.2029ZM83.5667 81.0447C78.9138 81.044 50.2118 81.0447 44.9347 81.0447C43.8733 81.0447 38.5541 81.0447 37.5913 81.0447C34.1455 81.0461 31.1303 78.6147 30.4438 75.2833H87.2155V77.4443C87.2155 79.4287 85.5785 81.0447 83.5667 81.0447ZM90.1314 43.6494C90.1314 44.0478 89.803 44.3726 89.3984 44.3726H88.6655V37.8916H89.3984C89.803 37.8916 90.1314 38.2163 90.1314 38.6148V43.6494Z" fill="#367373"/>
<path d="M75.5492 57.3112H79.1937C79.5946 57.3112 79.9187 56.9914 79.9187 56.5958V50.8423C79.9187 50.4474 79.5946 50.127 79.1937 50.127H75.5492C75.1483 50.127 74.8242 50.4474 74.8242 50.8423V56.5958C74.8242 56.9914 75.1483 57.3112 75.5492 57.3112ZM76.2742 51.5576H78.4687V55.8805H76.2742V51.5576Z" fill="#367373"/>
<path d="M42.0199 37.8564C41.6189 37.8564 41.2949 38.1769 41.2949 38.5718V48.6839C41.2949 49.0788 41.6189 49.3992 42.0199 49.3992C42.4208 49.3992 42.7448 49.0788 42.7448 48.6839V38.5718C42.7448 38.1769 42.4208 37.8564 42.0199 37.8564Z" fill="#367373"/>
<path d="M56.5981 36.4609C54.5907 36.4609 52.958 38.0726 52.958 40.0534C53.1291 44.8076 60.0686 44.8061 60.239 40.0534C60.239 38.0726 58.6049 36.4609 56.5981 36.4609ZM56.5981 42.2144C53.7098 42.1393 53.7105 37.9653 56.5981 37.8916C59.4865 37.966 59.4865 42.14 56.5981 42.2144Z" fill="#367373"/>
<path d="M75.5494 39.3311H81.3811C82.3323 39.3161 82.3352 37.9161 81.3811 37.9004H75.5494C74.5982 37.9154 74.5953 39.3153 75.5494 39.3311Z" fill="#367373"/>
</g>
<defs>
<filter id="filter0_d_205_888" x="0" y="0" width="120" height="120" filterUnits="userSpaceOnUse" color-interpolation-filters="sRGB">
<feFlood flood-opacity="0" result="BackgroundImageFix"/>
<feColorMatrix in="SourceAlpha" type="matrix" values="0 0 0 0 0 0 0 0 0 0 0 0 0 0 0 0 0 0 127 0" result="hardAlpha"/>
<feOffset dy="4"/>
<feGaussianBlur stdDeviation="5"/>
<feComposite in2="hardAlpha" operator="out"/>
<feColorMatrix type="matrix" values="0 0 0 0 0.929412 0 0 0 0 0.568627 0 0 0 0 0.231373 0 0 0 0.2 0"/>
<feBlend mode="normal" in2="BackgroundImageFix" result="effect1_dropShadow_205_888"/>
<feBlend mode="normal" in="SourceGraphic" in2="effect1_dropShadow_205_888" result="shape"/>
</filter>
</defs>
</svg>
