<svg width="120" height="120" viewBox="0 0 120 120" fill="none" xmlns="http://www.w3.org/2000/svg">
<g filter="url(#filter0_d_205_1139)">
<rect x="10" y="6" width="100" height="100" rx="50" fill="white"/>
<rect x="10.5" y="6.5" width="99" height="99" rx="49.5" stroke="#FDF4EB" stroke-linecap="round"/>
<path d="M81.4068 27.1113H37.8821C35.3762 27.1113 33.333 29.0524 33.333 31.433V80.9119C33.333 83.2925 35.3762 85.2336 37.8821 85.2336H81.4068C83.9126 85.2336 85.9559 83.2925 85.9559 80.9119V31.433C85.9559 29.0524 83.9126 27.1113 81.4068 27.1113ZM84.5102 80.9119C84.5102 82.5417 83.1223 83.8602 81.4068 83.8602H37.8821C36.1665 83.8602 34.7787 82.5417 34.7787 80.9119V31.433C34.7787 29.8032 36.1665 28.4847 37.8821 28.4847H81.4068C83.1223 28.4847 84.5102 29.8032 84.5102 31.433V80.9119Z" fill="#367373"/>
<path d="M40.3398 47.7124H78.9589C80.1347 47.7124 81.0792 46.8243 81.0792 45.7439V33.658C81.0792 32.5684 80.125 31.6895 78.9589 31.6895H40.3398C39.1737 31.6895 38.2195 32.5776 38.2195 33.658V45.7347C38.2195 46.8243 39.1737 47.7124 40.3398 47.7124ZM39.6652 33.658C39.6652 33.3284 39.9736 33.0629 40.3398 33.0629H78.9589C79.3347 33.0629 79.6335 33.3284 79.6335 33.658V45.7347C79.6335 46.0644 79.3251 46.3299 78.9589 46.3299H40.3398C39.964 46.3299 39.6652 46.0644 39.6652 45.7347V33.658Z" fill="#367373"/>
<path d="M56.0206 50.917H51.7028C50.633 50.917 49.7656 51.741 49.7656 52.7573V56.8592C49.7656 57.8755 50.633 58.6996 51.7028 58.6996H56.0206C57.0904 58.6996 57.9578 57.8755 57.9578 56.8592V52.7573C57.9578 51.741 57.0904 50.917 56.0206 50.917ZM56.5121 56.8592C56.5121 57.1156 56.2905 57.3262 56.0206 57.3262H51.7028C51.433 57.3262 51.2113 57.1156 51.2113 56.8592V52.7573C51.2113 52.501 51.433 52.2904 51.7028 52.2904H56.0206C56.2905 52.2904 56.5121 52.501 56.5121 52.7573V56.8592Z" fill="#367373"/>
<path d="M67.5765 50.917H63.278C62.2082 50.917 61.3408 51.741 61.3408 52.7573V56.8592C61.3408 57.8755 62.2082 58.6996 63.278 58.6996H67.5765C68.6463 58.6996 69.5138 57.8755 69.5138 56.8592V52.7573C69.5138 51.741 68.6463 50.917 67.5765 50.917ZM68.0681 56.8592C68.0681 57.1156 67.8464 57.3262 67.5765 57.3262H63.278C63.0082 57.3262 62.7865 57.1156 62.7865 56.8592V52.7573C62.7865 52.501 63.0082 52.2904 63.278 52.2904H67.5765C67.8464 52.2904 68.0681 52.501 68.0681 52.7573V56.8592Z" fill="#367373"/>
<path d="M79.1515 50.917H74.8337C73.7639 50.917 72.8965 51.741 72.8965 52.7573V56.8592C72.8965 57.8755 73.7639 58.6996 74.8337 58.6996H79.1515C80.2213 58.6996 81.0887 57.8755 81.0887 56.8592V52.7573C81.0887 51.741 80.2213 50.917 79.1515 50.917ZM79.643 56.8592C79.643 57.1156 79.4213 57.3262 79.1515 57.3262H74.8337C74.5638 57.3262 74.3422 57.1156 74.3422 56.8592V52.7573C74.3422 52.501 74.5638 52.2904 74.8337 52.2904H79.1515C79.4213 52.2904 79.643 52.501 79.643 52.7573V56.8592Z" fill="#367373"/>
<path d="M44.4939 50.917H40.1472C39.0774 50.917 38.21 51.741 38.21 52.7573V56.8592C38.21 57.8755 39.0774 58.6996 40.1472 58.6996H44.4939C45.5637 58.6996 46.4311 57.8755 46.4311 56.8592V52.7573C46.4311 51.741 45.5637 50.917 44.4939 50.917ZM44.9854 56.8592C44.9854 57.1156 44.7637 57.3262 44.4939 57.3262H40.1472C39.8773 57.3262 39.6556 57.1156 39.6556 56.8592V52.7573C39.6556 52.501 39.8773 52.2904 40.1472 52.2904H44.4939C44.7637 52.2904 44.9854 52.501 44.9854 52.7573V56.8592Z" fill="#367373"/>
<path d="M56.0206 61.9043H51.7028C50.633 61.9043 49.7656 62.7283 49.7656 63.7447V67.8465C49.7656 68.8629 50.633 69.6869 51.7028 69.6869H56.0206C57.0904 69.6869 57.9578 68.8629 57.9578 67.8465V63.7447C57.9578 62.7283 57.0904 61.9043 56.0206 61.9043ZM56.5121 67.8465C56.5121 68.1029 56.2905 68.3135 56.0206 68.3135H51.7028C51.433 68.3135 51.2113 68.1029 51.2113 67.8465V63.7447C51.2113 63.4883 51.433 63.2777 51.7028 63.2777H56.0206C56.2905 63.2777 56.5121 63.4883 56.5121 63.7447V67.8465Z" fill="#367373"/>
<path d="M67.5765 61.9043H63.278C62.2082 61.9043 61.3408 62.7283 61.3408 63.7447V67.8465C61.3408 68.8629 62.2082 69.6869 63.278 69.6869H67.5765C68.6463 69.6869 69.5138 68.8629 69.5138 67.8465V63.7447C69.5138 62.7283 68.6463 61.9043 67.5765 61.9043ZM68.0681 67.8465C68.0681 68.1029 67.8464 68.3135 67.5765 68.3135H63.278C63.0082 68.3135 62.7865 68.1029 62.7865 67.8465V63.7447C62.7865 63.4883 63.0082 63.2777 63.278 63.2777H67.5765C67.8464 63.2777 68.0681 63.4883 68.0681 63.7447V67.8465Z" fill="#367373"/>
<path d="M44.4939 61.9043H40.1472C39.0774 61.9043 38.21 62.7283 38.21 63.7447V67.8465C38.21 68.8629 39.0774 69.6869 40.1472 69.6869H44.4939C45.5637 69.6869 46.4311 68.8629 46.4311 67.8465V63.7447C46.4311 62.7283 45.5637 61.9043 44.4939 61.9043ZM44.9854 67.8465C44.9854 68.1029 44.7637 68.3135 44.4939 68.3135H40.1472C39.8773 68.3135 39.6556 68.1029 39.6556 67.8465V63.7447C39.6556 63.4883 39.8773 63.2777 40.1472 63.2777H44.4939C44.7637 63.2777 44.9854 63.4883 44.9854 63.7447V67.8465Z" fill="#367373"/>
<path d="M56.0207 72.8916H51.7029C50.6331 72.8916 49.7657 73.7156 49.7657 74.732V78.8338C49.7657 79.8502 50.6331 80.6742 51.7029 80.6742H56.0207C57.0905 80.6742 57.9579 79.8502 57.9579 78.8338V74.732C57.9579 73.7156 57.0905 72.8916 56.0207 72.8916ZM56.5122 78.8338C56.5122 79.0902 56.2905 79.3008 56.0207 79.3008H51.7029C51.433 79.3008 51.2114 79.0902 51.2114 78.8338V74.732C51.2114 74.4756 51.433 74.265 51.7029 74.265H56.0207C56.2905 74.265 56.5122 74.4756 56.5122 74.732V78.8338Z" fill="#367373"/>
<path d="M67.5766 72.8916H63.2781C62.2083 72.8916 61.3409 73.7156 61.3409 74.732V78.8338C61.3409 79.8502 62.2083 80.6742 63.2781 80.6742H67.5766C68.6464 80.6742 69.5138 79.8502 69.5138 78.8338V74.732C69.5138 73.7156 68.6464 72.8916 67.5766 72.8916ZM68.0681 78.8338C68.0681 79.0902 67.8464 79.3008 67.5766 79.3008H63.2781C63.0082 79.3008 62.7865 79.0902 62.7865 78.8338V74.732C62.7865 74.4756 63.0082 74.265 63.2781 74.265H67.5766C67.8464 74.265 68.0681 74.4756 68.0681 74.732V78.8338Z" fill="#367373"/>
<path d="M79.1515 61.9043H74.8337C73.7639 61.9043 72.8965 62.7283 72.8965 63.7447V78.8337C72.8965 79.8501 73.7639 80.6741 74.8337 80.6741H79.1515C80.2213 80.6741 81.0887 79.8501 81.0887 78.8337V63.7447C81.0887 62.7283 80.2213 61.9043 79.1515 61.9043ZM79.643 78.8337C79.643 79.0901 79.4213 79.3007 79.1515 79.3007H74.8337C74.5638 79.3007 74.3422 79.0901 74.3422 78.8337V63.7447C74.3422 63.4883 74.5638 63.2777 74.8337 63.2777H79.1515C79.4213 63.2777 79.643 63.4883 79.643 63.7447V78.8337Z" fill="#367373"/>
<path d="M44.4938 72.8916H40.1471C39.0773 72.8916 38.2099 73.7156 38.2099 74.732V78.8338C38.2099 79.8502 39.0773 80.6742 40.1471 80.6742H44.4938C45.5636 80.6742 46.4311 79.8502 46.4311 78.8338V74.732C46.4311 73.7156 45.5636 72.8916 44.4938 72.8916ZM44.9854 78.8338C44.9854 79.0902 44.7637 79.3008 44.4938 79.3008H40.1471C39.8773 79.3008 39.6556 79.0902 39.6556 78.8338V74.732C39.6556 74.4756 39.8773 74.265 40.1471 74.265H44.4938C44.7637 74.265 44.9854 74.4756 44.9854 74.732V78.8338Z" fill="#367373"/>
</g>
<defs>
<filter id="filter0_d_205_1139" x="0" y="0" width="120" height="120" filterUnits="userSpaceOnUse" color-interpolation-filters="sRGB">
<feFlood flood-opacity="0" result="BackgroundImageFix"/>
<feColorMatrix in="SourceAlpha" type="matrix" values="0 0 0 0 0 0 0 0 0 0 0 0 0 0 0 0 0 0 127 0" result="hardAlpha"/>
<feOffset dy="4"/>
<feGaussianBlur stdDeviation="5"/>
<feComposite in2="hardAlpha" operator="out"/>
<feColorMatrix type="matrix" values="0 0 0 0 0.929412 0 0 0 0 0.568627 0 0 0 0 0.231373 0 0 0 0.2 0"/>
<feBlend mode="normal" in2="BackgroundImageFix" result="effect1_dropShadow_205_1139"/>
<feBlend mode="normal" in="SourceGraphic" in2="effect1_dropShadow_205_1139" result="shape"/>
</filter>
</defs>
</svg>
