<svg width="120" height="120" viewBox="0 0 120 120" fill="none" xmlns="http://www.w3.org/2000/svg">
<g filter="url(#filter0_d_205_263)">
<rect x="10" y="6" width="100" height="100" rx="50" fill="white"/>
<rect x="10.5" y="6.5" width="99" height="99" rx="49.5" stroke="#FDF4EB" stroke-linecap="round"/>
<path d="M83.8384 58.9613C79.5285 52.9084 72.8064 49.6724 70.3352 48.6648C71.898 46.8079 72.9477 44.5743 73.3799 42.1861C73.8122 39.7979 73.6119 37.3381 72.799 35.0512C73.8719 34.8195 74.8649 34.3093 75.678 33.5721C76.4912 32.8348 77.0959 31.8964 77.4314 30.8513C77.7669 29.8062 77.8213 28.6912 77.5891 27.6184C77.3569 26.5456 76.8464 25.5528 76.1088 24.7399C75.3712 23.927 74.4326 23.3227 73.3874 22.9876C72.3422 22.6525 71.2271 22.5986 70.1544 22.8312C69.0817 23.0638 68.0891 23.5747 67.2765 24.3126C66.4639 25.0504 65.8599 25.9893 65.5252 27.0346C63.6679 26.1633 61.6416 25.7115 59.59 25.7115C57.5385 25.7115 55.5121 26.1633 53.6548 27.0346C53.322 25.9849 52.7182 25.0415 51.9042 24.2997C51.0902 23.558 50.095 23.0441 49.0189 22.81C47.9428 22.5759 46.824 22.6299 45.7754 22.9665C44.7269 23.3031 43.7857 23.9105 43.047 24.7271C42.3082 25.5438 41.798 26.541 41.5679 27.6179C41.3377 28.6949 41.3958 29.8134 41.7363 30.8608C42.0767 31.9081 42.6875 32.847 43.5069 33.5828C44.3263 34.3185 45.3253 34.8251 46.4031 35.0512C45.6059 37.3391 45.4172 39.7949 45.8556 42.1777C46.294 44.5605 47.3444 46.7884 48.9037 48.6427C46.381 49.7091 39.725 52.9452 35.4446 58.9393C35.0148 59.5415 34.7139 60.226 34.5607 60.9499C34.4076 61.6737 34.4055 62.4214 34.5547 63.1461C34.7075 63.9342 35.0183 64.6833 35.4683 65.3481C35.9182 66.013 36.4981 66.5799 37.1729 67.0147C38.1163 67.6245 39.2158 67.949 40.3391 67.949C41.4625 67.949 42.5619 67.6245 43.5053 67.0147L43.8731 66.7205C44.1227 68.3466 44.5954 69.9305 45.2778 71.4275C43.6365 72.0238 42.1347 72.9499 40.865 74.1487C39.2643 75.7536 38.3655 77.9277 38.3655 80.1943C38.3655 82.4609 39.2643 84.635 40.865 86.2398C41.6582 87.0351 42.6004 87.666 43.6378 88.0965C44.6752 88.5269 45.7874 88.7485 46.9105 88.7485C48.0337 88.7485 49.1458 88.5269 50.1832 88.0965C51.2206 87.666 52.1629 87.0351 52.9561 86.2398C54.3881 84.7086 55.4345 82.858 56.0083 80.8415C58.3736 81.4593 60.8579 81.4593 63.2232 80.8415C63.7914 82.8593 64.8327 84.7125 66.2607 86.2472C67.0539 87.0424 67.9962 87.6733 69.0336 88.1038C70.0709 88.5343 71.1831 88.7559 72.3063 88.7559C73.4294 88.7559 74.5415 88.5343 75.5789 88.1038C76.6163 87.6733 77.5586 87.0424 78.3518 86.2472C79.9524 84.6424 80.8513 82.4683 80.8513 80.2017C80.8513 77.935 79.9524 75.7609 78.3518 74.1561C77.0825 72.962 75.5801 72.0431 73.939 71.4569C74.6431 69.9635 75.1357 68.3793 75.4026 66.7499L75.7188 67.0073L75.7777 67.0515C76.7211 67.6613 77.8205 67.9857 78.9439 67.9857C80.0672 67.9857 81.1666 67.6613 82.11 67.0515C82.7849 66.6166 83.3647 66.0497 83.8147 65.3849C84.2647 64.72 84.5754 63.971 84.7283 63.1829C84.8795 62.4559 84.8786 61.7055 84.7254 60.9789C84.5722 60.2524 84.2702 59.5654 83.8384 58.9613ZM48.6095 33.6539L47.3224 32.9184C47.19 33.1537 47.065 33.3964 46.9547 33.6539C46.0997 33.5249 45.2957 33.1669 44.6279 32.6179C43.96 32.0688 43.4533 31.3491 43.1615 30.5352C42.8698 29.7214 42.8038 28.8437 42.9707 27.9954C43.1376 27.1471 43.531 26.3597 44.1093 25.717C44.6876 25.0743 45.4291 24.6002 46.2552 24.3449C47.0812 24.0897 47.961 24.0629 48.801 24.2674C49.6411 24.4719 50.4101 24.9001 51.0264 25.5064C51.6427 26.1128 52.0833 26.8747 52.3015 27.7113C51.9926 27.9025 51.6837 28.1084 51.3822 28.3291L52.2868 29.5352C54.424 27.9807 56.9987 27.1433 59.6415 27.1433C62.2842 27.1433 64.859 27.9807 66.9962 29.5352L67.864 28.3438C67.5649 28.1231 67.256 27.9172 66.9373 27.726C67.155 26.8907 67.5952 26.1302 68.2108 25.5252C68.8265 24.9203 69.5947 24.4936 70.4336 24.2906C71.2726 24.0876 72.1508 24.1159 72.975 24.3724C73.7991 24.629 74.5382 25.1042 75.1137 25.7476C75.6892 26.3909 76.0794 27.1782 76.243 28.0257C76.4065 28.8732 76.3371 29.7492 76.0422 30.5604C75.7474 31.3716 75.2381 32.0877 74.5686 32.6325C73.899 33.1772 73.0943 33.5302 72.2401 33.6539C72.1224 33.4038 71.9973 33.1611 71.8723 32.9184L70.5779 33.6539C71.6133 35.5582 72.1359 37.699 72.0943 39.8662C72.0528 42.0334 71.4485 44.1526 70.3407 46.0158C69.233 47.879 67.6599 49.4222 65.7758 50.494C63.8917 51.5658 61.7613 52.1293 59.5937 52.1293C57.4261 52.1293 55.2957 51.5658 53.4116 50.494C51.5275 49.4222 49.9544 47.879 48.8466 46.0158C47.7389 44.1526 47.1346 42.0334 47.093 39.8662C47.0514 37.699 47.574 35.5582 48.6095 33.6539ZM51.9117 85.2102C50.5738 86.4867 48.7898 87.1893 46.9407 87.1679C45.0917 87.1465 43.3244 86.4028 42.0163 85.0958C40.7083 83.7887 39.9633 82.0219 39.9406 80.1729C39.9178 78.3239 40.6192 76.5393 41.8946 75.2005C43.5852 73.6441 45.6853 72.603 47.9475 72.1998C48.5613 72.0855 49.184 72.0264 49.8083 72.0232C50.5229 71.9755 51.2398 72.0699 51.9177 72.3009C52.5956 72.532 53.221 72.895 53.7577 73.3691C56.4937 76.1345 54.6035 82.511 51.9117 85.2102ZM77.2927 85.2102C76.6357 85.8678 75.8554 86.3894 74.9967 86.7453C74.1379 87.1012 73.2175 87.2844 72.2879 87.2844C71.3583 87.2844 70.4378 87.1012 69.579 86.7453C68.7203 86.3894 67.9401 85.8678 67.283 85.2102C64.6133 82.511 62.7305 76.1345 65.5252 73.3691C66.6013 72.417 68.011 71.9303 69.4453 72.0159C70.072 72.0193 70.6971 72.0784 71.3134 72.1924C73.5507 72.6098 75.624 73.6528 77.2927 75.2005C77.9503 75.8575 78.4719 76.6377 78.8278 77.4965C79.1838 78.3553 79.3669 79.2757 79.3669 80.2053C79.3669 81.1349 79.1838 82.0554 78.8278 82.9142C78.4719 83.7729 77.9503 84.5531 77.2927 85.2102ZM83.2574 62.8887C83.146 63.4882 82.913 64.0585 82.5727 64.5645C82.2325 65.0704 81.7921 65.5013 81.279 65.8306C80.5774 66.2793 79.762 66.5178 78.9291 66.5178C78.0963 66.5178 77.2809 66.2793 76.5793 65.8306L75.557 64.9995C75.6733 63.1623 75.5146 61.318 75.0863 59.5276L73.6154 59.8733C74.5257 63.5975 74.1365 67.5209 72.5122 70.9936C72.169 70.9004 71.8233 70.8195 71.4752 70.7509C68.4745 70.1993 65.9592 70.7509 64.3853 72.3321C62.6275 74.0899 62.2965 76.745 62.7893 79.4221C60.6577 79.9775 58.4193 79.9775 56.2878 79.4221C56.8394 76.4287 56.2878 73.9134 54.7065 72.3395C53.1252 70.7656 50.6099 70.2066 47.6166 70.7582C47.2856 70.8244 46.9473 70.898 46.6237 70.9862C45.0018 67.5179 44.6151 63.5991 45.5279 59.8807L44.1967 59.5276C43.7704 61.3134 43.6118 63.1525 43.726 64.9848L42.711 65.8085C42.0064 66.2528 41.1905 66.4885 40.3575 66.4885C39.5246 66.4885 38.7086 66.2528 38.004 65.8085C37.4928 65.4779 37.0543 65.0465 36.7154 64.5407C36.3765 64.0348 36.1443 63.4652 36.033 62.8667C35.9239 62.3373 35.9251 61.7911 36.0364 61.2621C36.1478 60.7332 36.3669 60.2329 36.6802 59.7924C41.0415 53.666 48.2417 50.4887 50.0289 49.768C52.6194 52.2502 56.0685 53.6359 59.6562 53.6359C63.2439 53.6359 66.693 52.2502 69.2835 49.768C70.9898 50.4446 78.2783 53.6292 82.6763 59.8071C82.9843 60.2513 83.1974 60.7542 83.3025 61.2844C83.4075 61.8145 83.4021 62.3607 83.2868 62.8887H83.2574Z" fill="#367373"/>
<path d="M52.8605 44.8328C52.8634 46.1662 53.2612 47.469 54.0035 48.5767C54.7458 49.6844 55.7996 50.5475 57.0318 51.0571C58.2641 51.5667 59.6196 51.7 60.9275 51.4402C62.2354 51.1804 63.4371 50.5392 64.381 49.5973C65.3249 48.6554 65.9688 47.4551 66.2315 46.1478C66.4941 44.8404 66.3637 43.4846 65.8568 42.2513C65.3498 41.0179 64.489 39.9623 63.3829 39.2176C62.2768 38.4728 60.975 38.0723 59.6415 38.0665C58.7512 38.0626 57.8689 38.2348 57.0454 38.5733C56.2219 38.9118 55.4734 39.4098 54.8432 40.0387C54.2129 40.6676 53.7133 41.415 53.373 42.2377C53.0327 43.0605 52.8586 43.9424 52.8605 44.8328ZM61.289 41.2363C61.286 41.5704 61.1837 41.8959 60.9952 42.1717C60.8067 42.4474 60.5405 42.6609 60.2304 42.785C59.9202 42.909 59.5802 42.9381 59.2535 42.8684C58.9268 42.7987 58.6283 42.6335 58.3957 42.3937C58.1632 42.1539 58.0072 41.8504 57.9476 41.5217C57.888 41.193 57.9275 40.8541 58.0611 40.5479C58.1946 40.2417 58.4162 39.9822 58.6976 39.8022C58.979 39.6223 59.3076 39.5301 59.6415 39.5374C60.0844 39.5471 60.5056 39.7308 60.8139 40.0488C61.1223 40.3668 61.293 40.7934 61.289 41.2363ZM56.5379 40.545C56.4852 40.7717 56.458 41.0036 56.457 41.2363C56.4363 41.663 56.5026 42.0894 56.6517 42.4897C56.8007 42.89 57.0295 43.2559 57.3242 43.5652C57.6189 43.8744 57.9733 44.1206 58.3659 44.2888C58.7586 44.457 59.1813 44.5438 59.6084 44.5438C60.0356 44.5438 60.4583 44.457 60.851 44.2888C61.2436 44.1206 61.598 43.8744 61.8927 43.5652C62.1874 43.2559 62.4162 42.89 62.5652 42.4897C62.7143 42.0894 62.7805 41.663 62.7599 41.2363C62.7588 41.0036 62.7317 40.7717 62.679 40.545C63.5891 41.1955 64.2692 42.1182 64.621 43.1801C64.9729 44.242 64.9785 45.3882 64.637 46.4534C64.2954 47.5187 63.6244 48.448 62.7206 49.1072C61.8169 49.7665 60.7271 50.1218 59.6084 50.1218C58.4898 50.1218 57.4 49.7665 56.4962 49.1072C55.5925 48.448 54.9215 47.5187 54.5799 46.4534C54.2384 45.3882 54.2439 44.242 54.5958 43.1801C54.9477 42.1182 55.6277 41.1955 56.5379 40.545Z" fill="#367373"/>
<path d="M65.0843 39.0739C65.6129 39.0753 66.1301 38.9198 66.5703 38.627C67.0104 38.3342 67.3538 37.9173 67.5567 37.4292C67.7597 36.9411 67.8132 36.4036 67.7104 35.8851C67.6077 35.3665 67.3532 34.8901 66.9794 34.5163C66.6056 34.1425 66.1292 33.8881 65.6107 33.7853C65.0921 33.6825 64.5547 33.736 64.0666 33.939C63.5784 34.142 63.1615 34.4853 62.8688 34.9255C62.576 35.3656 62.4204 35.8828 62.4219 36.4115C62.4238 37.117 62.705 37.793 63.2038 38.2919C63.7027 38.7908 64.3788 39.0719 65.0843 39.0739ZM65.0843 35.2127C65.2491 35.1997 65.4148 35.221 65.571 35.2752C65.7272 35.3294 65.8706 35.4153 65.992 35.5276C66.1134 35.6398 66.2102 35.7759 66.2765 35.9274C66.3427 36.0789 66.3769 36.2425 66.3769 36.4078C66.3769 36.5731 66.3427 36.7367 66.2765 36.8882C66.2102 37.0396 66.1134 37.1758 65.992 37.288C65.8706 37.4003 65.7272 37.4862 65.571 37.5404C65.4148 37.5946 65.2491 37.6159 65.0843 37.6029C64.7835 37.5793 64.5027 37.4432 64.2979 37.2216C64.0931 37.0001 63.9793 36.7095 63.9793 36.4078C63.9793 36.1061 64.0931 35.8155 64.2979 35.594C64.5027 35.3724 64.7835 35.2363 65.0843 35.2127Z" fill="#367373"/>
<path d="M54.1331 39.0739C54.6618 39.0753 55.1789 38.9198 55.6191 38.627C56.0593 38.3342 56.4026 37.9173 56.6056 37.4292C56.8086 36.9411 56.862 36.4036 56.7593 35.8851C56.6565 35.3665 56.4021 34.8901 56.0283 34.5163C55.6544 34.1425 55.1781 33.8881 54.6595 33.7853C54.1409 33.6825 53.6035 33.736 53.1154 33.939C52.6273 34.142 52.2104 34.4853 51.9176 34.9255C51.6248 35.3656 51.4693 35.8828 51.4707 36.4115C51.4727 37.117 51.7538 37.793 52.2527 38.2919C52.7515 38.7908 53.4276 39.0719 54.1331 39.0739ZM54.1331 35.2127C54.3705 35.2112 54.603 35.2803 54.8011 35.4111C54.9992 35.5419 55.154 35.7287 55.2459 35.9476C55.3378 36.1665 55.3626 36.4078 55.3171 36.6408C55.2717 36.8738 55.1581 37.0881 54.9908 37.2565C54.8234 37.4249 54.6098 37.5398 54.3771 37.5867C54.1443 37.6335 53.9029 37.6102 53.6834 37.5197C53.4639 37.4292 53.2763 37.2756 53.1442 37.0783C53.0122 36.881 52.9417 36.6489 52.9417 36.4115C52.9416 36.0948 53.0669 35.791 53.2902 35.5664C53.5134 35.3418 53.8164 35.2146 54.1331 35.2127Z" fill="#367373"/>
<path d="M64.0102 54.8506C63.1931 54.8522 62.3856 55.0274 61.6413 55.3647C60.897 55.7019 60.2329 56.1936 59.693 56.8069C58.9231 55.9297 57.9043 55.3078 56.7721 55.0241C55.6399 54.7403 54.4482 54.8083 53.3555 55.2188C52.2629 55.6293 51.3213 56.363 50.6561 57.322C49.9908 58.2811 49.6336 59.4201 49.6318 60.5872C49.6318 67.1476 58.9796 71.7517 59.3768 71.9429L59.693 72.1047L60.0167 71.9429C60.4138 71.7517 69.7543 67.1476 69.7543 60.5872C69.7523 59.0651 69.1463 57.606 68.0693 56.5304C66.9923 55.4547 65.5324 54.8506 64.0102 54.8506ZM59.693 70.4278C58.0971 69.582 51.1028 65.5884 51.1028 60.5578C51.1047 59.6206 51.4147 58.7101 51.985 57.9664C52.5553 57.2227 53.3543 56.6872 54.2589 56.4422C55.1635 56.1972 56.1236 56.2565 56.9912 56.6107C57.8589 56.965 58.586 57.5948 59.0605 58.4029L59.693 59.4767L60.3256 58.4029C60.8001 57.5948 61.5272 56.965 62.3949 56.6107C63.2625 56.2565 64.2225 56.1972 65.1272 56.4422C66.0318 56.6872 66.8307 57.2227 67.4011 57.9664C67.9714 58.7101 68.2814 59.6206 68.2833 60.5578C68.2833 65.6105 61.289 69.6114 59.693 70.4278Z" fill="#367373"/>
</g>
<defs>
<filter id="filter0_d_205_263" x="0" y="0" width="120" height="120" filterUnits="userSpaceOnUse" color-interpolation-filters="sRGB">
<feFlood flood-opacity="0" result="BackgroundImageFix"/>
<feColorMatrix in="SourceAlpha" type="matrix" values="0 0 0 0 0 0 0 0 0 0 0 0 0 0 0 0 0 0 127 0" result="hardAlpha"/>
<feOffset dy="4"/>
<feGaussianBlur stdDeviation="5"/>
<feComposite in2="hardAlpha" operator="out"/>
<feColorMatrix type="matrix" values="0 0 0 0 0.929412 0 0 0 0 0.568627 0 0 0 0 0.231373 0 0 0 0.2 0"/>
<feBlend mode="normal" in2="BackgroundImageFix" result="effect1_dropShadow_205_263"/>
<feBlend mode="normal" in="SourceGraphic" in2="effect1_dropShadow_205_263" result="shape"/>
</filter>
</defs>
</svg>
