<svg width="63" height="57" viewBox="0 0 63 57" fill="none" xmlns="http://www.w3.org/2000/svg">
<path d="M1.4461 8.88756C1.08069 9.08261 0.626341 8.94451 0.43129 8.57909C0.236239 8.21368 0.374347 7.75933 0.739762 7.56428L1.4461 8.88756ZM31.5083 1.07487L31.5646 0.326992L31.5646 0.326992L31.5083 1.07487ZM45.4946 28.0566L45.9727 28.6346L45.9727 28.6346L45.4946 28.0566ZM24.2546 34.0515L23.7702 34.6241L23.7702 34.6241L24.2546 34.0515ZM42.7365 16.1891L42.6613 15.4429L42.7365 16.1891ZM55.5965 56.9076L52.8803 48.6843L61.36 50.4437L55.5965 56.9076ZM2.16889 6.83418C2.54091 6.65203 2.99015 6.80594 3.1723 7.17796C3.35445 7.54997 3.20054 7.99921 2.82852 8.18136L2.16889 6.83418ZM5.66492 6.8945C5.2832 7.05533 4.84338 6.87627 4.68255 6.49455C4.52173 6.11283 4.70079 5.67302 5.08251 5.51219L5.66492 6.8945ZM8.05661 4.34307C8.44553 4.20054 8.87635 4.40027 9.01889 4.78919C9.16142 5.1781 8.96169 5.60893 8.57277 5.75147L8.05661 4.34307ZM11.5318 4.74031C11.137 4.86572 10.7153 4.64737 10.5899 4.25259C10.4645 3.85782 10.6829 3.43613 11.0776 3.31072L11.5318 4.74031ZM14.1392 2.40998C14.539 2.30166 14.9509 2.53795 15.0592 2.93775C15.1675 3.33755 14.9312 3.74947 14.5314 3.85778L14.1392 2.40998ZM17.5654 3.10738C17.1611 3.19773 16.7602 2.94328 16.6698 2.53904C16.5795 2.1348 16.8339 1.73386 17.2381 1.6435L17.5654 3.10738ZM20.3722 1.02109C20.7803 0.950455 21.1684 1.22406 21.2391 1.63221C21.3097 2.04036 21.0361 2.42848 20.628 2.49912L20.3722 1.02109ZM23.7131 2.05003C23.3017 2.09814 22.9292 1.80362 22.8811 1.39221C22.8329 0.980801 23.1275 0.608287 23.5389 0.560178L23.7131 2.05003ZM26.7349 0.287839C27.1486 0.266452 27.5012 0.584453 27.5226 0.998114C27.544 1.41177 27.226 1.76445 26.8123 1.78584L26.7349 0.287839ZM29.9116 1.74417C29.4976 1.73266 29.1713 1.38767 29.1828 0.973612C29.1943 0.559559 29.5393 0.233236 29.9533 0.244749L29.9116 1.74417ZM33.1746 0.467055C33.5868 0.507897 33.8878 0.875155 33.847 1.28735C33.8061 1.69955 33.4389 2.00059 33.0267 1.95975L33.1746 0.467055ZM36.1046 2.3459C35.6952 2.28288 35.4144 1.89991 35.4774 1.49052C35.5405 1.08113 35.9234 0.800344 36.3328 0.863371L36.1046 2.3459ZM39.5033 1.45843C39.9075 1.54921 40.1615 1.95043 40.0707 2.35457C39.9799 2.75872 39.5787 3.01274 39.1746 2.92196L39.5033 1.45843ZM42.1508 3.72195C41.7561 3.5963 41.538 3.17447 41.6636 2.77978C41.7893 2.38508 42.2111 2.16698 42.6058 2.29264L42.1508 3.72195ZM45.6359 3.44608C46.0132 3.61689 46.1807 4.06127 46.0099 4.43862C45.8391 4.81598 45.3947 4.98342 45.0173 4.8126L45.6359 3.44608ZM47.6807 6.27204C47.3358 6.04263 47.2422 5.57708 47.4716 5.23219C47.7011 4.88731 48.1666 4.7937 48.5115 5.02311L47.6807 6.27204ZM51.068 7.15338C51.3524 7.4546 51.3387 7.92928 51.0374 8.2136C50.7362 8.49792 50.2615 8.48422 49.9772 8.183L51.068 7.15338ZM51.6559 10.5729C51.4733 10.2011 51.6267 9.75165 51.9985 9.56905C52.3702 9.38644 52.8197 9.5398 53.0023 9.91159L51.6559 10.5729ZM53.9715 13.1612C54.0228 13.5722 53.7311 13.947 53.3201 13.9982C52.9091 14.0495 52.5343 13.7578 52.4831 13.3468L53.9715 13.1612ZM52.4 16.2735C52.4698 15.8652 52.8574 15.5908 53.2657 15.6606C53.674 15.7304 53.9484 16.1179 53.8786 16.5262L52.4 16.2735ZM52.9356 19.7127C52.7758 20.0948 52.3364 20.2751 51.9543 20.1152C51.5722 19.9554 51.3919 19.5161 51.5518 19.1339L52.9356 19.7127ZM50.1357 21.8109C50.359 21.462 50.8229 21.3603 51.1717 21.5836C51.5206 21.807 51.6223 22.2708 51.399 22.6196L50.1357 21.8109ZM49.4507 25.2317C49.1814 25.5464 48.7079 25.5832 48.3932 25.3138C48.0786 25.0445 48.0418 24.571 48.3112 24.2564L49.4507 25.2317ZM46.1771 26.4653C46.4815 26.1845 46.956 26.2036 47.2369 26.508C47.5177 26.8125 47.4986 27.287 47.1941 27.5678L46.1771 26.4653ZM44.7981 29.5514C44.4649 29.7975 43.9953 29.7269 43.7493 29.3937C43.5032 29.0605 43.5738 28.5909 43.907 28.3448L44.7981 29.5514ZM41.5538 29.9183C41.9078 29.7032 42.3691 29.8159 42.5841 30.1699C42.7992 30.5239 42.6866 30.9852 42.3325 31.2003L41.5538 29.9183ZM39.7453 32.6351C39.3756 32.8218 38.9245 32.6735 38.7377 32.3038C38.551 31.9341 38.6993 31.4829 39.069 31.2962L39.7453 32.6351ZM36.4853 32.4794C36.8683 32.3217 37.3066 32.5045 37.4643 32.8875C37.6219 33.2705 37.4392 33.7088 37.0562 33.8665L36.4853 32.4794ZM34.2704 34.8779C33.8751 35.0017 33.4543 34.7816 33.3306 34.3863C33.2068 33.991 33.4269 33.5702 33.8222 33.4465L34.2704 34.8779ZM31.0951 34.1429C31.5019 34.0647 31.895 34.3311 31.9732 34.7379C32.0513 35.1446 31.785 35.5378 31.3782 35.6159L31.0951 34.1429ZM28.367 35.9434C27.9528 35.9478 27.6135 35.6156 27.6091 35.2014C27.6047 34.7872 27.9369 34.4479 28.351 34.4435L28.367 35.9434ZM25.7707 34.066C26.1585 34.2115 26.355 34.6438 26.2096 35.0316C26.0642 35.4195 25.6319 35.616 25.2441 35.4706L25.7707 34.066ZM22.6298 33.2737C22.4224 32.9152 22.5448 32.4564 22.9034 32.2489C23.2619 32.0415 23.7207 32.1639 23.9281 32.5225L22.6298 33.2737ZM23.4957 30.0617C23.445 30.4728 23.0707 30.765 22.6596 30.7143C22.2485 30.6636 21.9563 30.2893 22.007 29.8782L23.4957 30.0617ZM23.0449 26.7607C23.2384 26.3945 23.6921 26.2544 24.0584 26.4479C24.4247 26.6414 24.5647 27.0951 24.3712 27.4614L23.0449 26.7607ZM25.9949 25.098C25.7273 25.4142 25.2541 25.4536 24.9379 25.186C24.6217 24.9184 24.5823 24.4451 24.8499 24.129L25.9949 25.098ZM27.0691 21.9013C27.3826 21.6305 27.8562 21.6652 28.1269 21.9786C28.3976 22.2921 28.363 22.7657 28.0495 23.0365L27.0691 21.9013ZM30.3924 21.2688C30.0467 21.4971 29.5815 21.4018 29.3533 21.0562C29.1251 20.7105 29.2203 20.2453 29.5659 20.0171L30.3924 21.2688ZM32.2604 18.4558C32.63 18.2688 33.0812 18.4169 33.2682 18.7865C33.4552 19.1561 33.3071 19.6073 32.9375 19.7943L32.2604 18.4558ZM35.6384 18.6086C35.2507 18.7545 34.8182 18.5584 34.6723 18.1707C34.5265 17.783 34.7226 17.3505 35.1103 17.2047L35.6384 18.6086ZM38.0729 16.2652C38.4738 16.1608 38.8834 16.4012 38.9877 16.802C39.0921 17.2029 38.8518 17.6124 38.451 17.7168L38.0729 16.2652ZM41.3449 17.1211C40.9354 17.1836 40.5528 16.9024 40.4902 16.4929C40.4277 16.0835 40.709 15.7008 41.1184 15.6383L41.3449 17.1211ZM44.2424 15.312C44.6557 15.2855 45.0123 15.5992 45.0388 16.0125C45.0652 16.4259 44.7516 16.7825 44.3382 16.8089L44.2424 15.312ZM47.3092 16.7441C46.8951 16.7338 46.5678 16.3898 46.5781 15.9757C46.5883 15.5616 46.9324 15.2343 47.3465 15.2445L47.3092 16.7441ZM50.4575 15.5017C50.8673 15.5623 51.1504 15.9436 51.0898 16.3533C51.0293 16.7631 50.648 17.0462 50.2383 16.9856L50.4575 15.5017ZM53.0899 17.6483C52.6968 17.5178 52.4839 17.0933 52.6144 16.7002C52.7449 16.3071 53.1694 16.0942 53.5625 16.2247L53.0899 17.6483ZM56.4787 17.5797C56.8296 17.7998 56.9356 18.2627 56.7155 18.6136C56.4953 18.9645 56.0324 19.0705 55.6816 18.8503L56.4787 17.5797ZM57.8249 20.6717C57.5527 20.3596 57.585 19.8858 57.8972 19.6135C58.2094 19.3413 58.6832 19.3737 58.9554 19.6858L57.8249 20.6717ZM60.7119 22.4164C60.8858 22.7923 60.722 23.2381 60.3461 23.412C59.9701 23.5859 59.5244 23.4221 59.3505 23.0462L60.7119 22.4164ZM60.245 25.7788C60.1579 25.3739 60.4155 24.975 60.8204 24.8878C61.2254 24.8006 61.6243 25.0582 61.7115 25.4632L60.245 25.7788ZM62.1193 28.5999C62.1424 29.0135 61.8258 29.3675 61.4122 29.3905C60.9986 29.4135 60.6447 29.097 60.6216 28.6834L62.1193 28.5999ZM60.6147 31.6513C60.637 31.2377 60.9903 30.9205 61.404 30.9428C61.8176 30.965 62.1348 31.3184 62.1125 31.732L60.6147 31.6513ZM61.8176 34.8278C61.7631 35.2384 61.386 35.527 60.9754 35.4725C60.5648 35.418 60.2761 35.0409 60.3306 34.6303L61.8176 34.8278ZM59.8462 37.5958C59.924 37.1889 60.3169 36.9221 60.7237 36.9999C61.1306 37.0777 61.3973 37.4705 61.3196 37.8774L59.8462 37.5958ZM60.6747 40.8912C60.5801 41.2945 60.1764 41.5447 59.7732 41.45C59.3699 41.3554 59.1197 40.9518 59.2144 40.5485L60.6747 40.8912ZM58.4768 43.4833C58.5833 43.083 58.9941 42.8449 59.3944 42.9514C59.7947 43.0579 60.0328 43.4688 59.9263 43.8691L58.4768 43.4833ZM59.107 46.825C58.9929 47.2233 58.5777 47.4536 58.1795 47.3396C57.7812 47.2255 57.5509 46.8103 57.6649 46.4121L59.107 46.825ZM56.8126 49.3375C56.9294 48.9401 57.3462 48.7126 57.7436 48.8294C58.141 48.9463 58.3685 49.3631 58.2517 49.7605L56.8126 49.3375ZM57.4023 52.6836C57.2895 53.0822 56.8749 53.3138 56.4764 53.2009C56.0778 53.0881 55.8462 52.6735 55.9591 52.275L57.4023 52.6836ZM55.1731 55.2579C55.2675 54.8546 55.671 54.6042 56.0743 54.6987C56.4776 54.7931 56.728 55.1966 56.6336 55.5999L55.1731 55.2579ZM0.739762 7.56428C1.19747 7.31996 1.67447 7.07627 2.16889 6.83418L2.82852 8.18136C2.34888 8.41621 1.8875 8.65196 1.4461 8.88756L0.739762 7.56428ZM5.08251 5.51219C6.03426 5.11119 7.0287 4.71979 8.05661 4.34307L8.57277 5.75147C7.56644 6.12028 6.59412 6.50301 5.66492 6.8945L5.08251 5.51219ZM11.0776 3.31072C12.079 2.99261 13.1019 2.69102 14.1392 2.40998L14.5314 3.85778C13.5153 4.13309 12.513 4.4286 11.5318 4.74031L11.0776 3.31072ZM17.2381 1.6435C18.2777 1.41115 19.3247 1.20237 20.3722 1.02109L20.628 2.49912C19.6055 2.67606 18.5824 2.88005 17.5654 3.10738L17.2381 1.6435ZM23.5389 0.560178C24.6128 0.4346 25.6807 0.342344 26.7349 0.287839L26.8123 1.78584C25.7929 1.83854 24.7574 1.92791 23.7131 2.05003L23.5389 0.560178ZM29.9533 0.244749C30.4966 0.259857 31.0341 0.287033 31.5646 0.326992L31.452 1.82275C30.9463 1.78467 30.4325 1.75865 29.9116 1.74417L29.9533 0.244749ZM31.5646 0.326992C32.1126 0.368268 32.6492 0.415004 33.1746 0.467055L33.0267 1.95975C32.5134 1.90889 31.9886 1.86317 31.452 1.82275L31.5646 0.326992ZM36.3328 0.863371C37.4481 1.03507 38.5043 1.23401 39.5033 1.45843L39.1746 2.92196C38.2111 2.70552 37.1885 2.51277 36.1046 2.3459L36.3328 0.863371ZM42.6058 2.29264C43.7001 2.64102 44.7091 3.02656 45.6359 3.44608L45.0173 4.8126C44.1484 4.41928 43.1944 4.05421 42.1508 3.72195L42.6058 2.29264ZM48.5115 5.02311C49.5005 5.68096 50.3509 6.39357 51.068 7.15338L49.9772 8.183C49.3452 7.51338 48.5839 6.87284 47.6807 6.27204L48.5115 5.02311ZM53.0023 9.91159C53.5153 10.9561 53.8325 12.0462 53.9715 13.1612L52.4831 13.3468C52.3641 12.3929 52.0936 11.464 51.6559 10.5729L53.0023 9.91159ZM53.8786 16.5262C53.6962 17.5932 53.3757 18.6603 52.9356 19.7127L51.5518 19.1339C51.9529 18.1748 52.2388 17.2169 52.4 16.2735L53.8786 16.5262ZM51.399 22.6196C50.8276 23.5122 50.1746 24.386 49.4507 25.2317L48.3112 24.2564C48.9932 23.4595 49.6042 22.6411 50.1357 21.8109L51.399 22.6196ZM47.1941 27.5678C46.8 27.9314 46.3926 28.2873 45.9727 28.6346L45.0166 27.4787C45.416 27.1484 45.8031 26.8103 46.1771 26.4653L47.1941 27.5678ZM45.9727 28.6346C45.5973 28.945 45.2049 29.2511 44.7981 29.5514L43.907 28.3448C44.2931 28.0597 44.6637 27.7706 45.0166 27.4787L45.9727 28.6346ZM42.3325 31.2003C41.4988 31.7067 40.6311 32.1876 39.7453 32.6351L39.069 31.2962C39.9209 30.8659 40.7544 30.4039 41.5538 29.9183L42.3325 31.2003ZM37.0562 33.8665C36.1264 34.2492 35.1922 34.5893 34.2704 34.8779L33.8222 33.4465C34.6995 33.1717 35.5929 32.8467 36.4853 32.4794L37.0562 33.8665ZM31.3782 35.6159C30.3291 35.8176 29.3148 35.9333 28.367 35.9434L28.351 34.4435C29.1912 34.4346 30.1145 34.3313 31.0951 34.1429L31.3782 35.6159ZM25.2441 35.4706C24.6999 35.2665 24.2011 34.9887 23.7702 34.6241L24.739 33.479C25.02 33.7167 25.3632 33.9133 25.7707 34.066L25.2441 35.4706ZM23.7702 34.6241C23.2996 34.226 22.9188 33.7732 22.6298 33.2737L23.9281 32.5225C24.1266 32.8655 24.3936 33.1868 24.739 33.479L23.7702 34.6241ZM22.007 29.8782C22.1327 28.8584 22.4933 27.8049 23.0449 26.7607L24.3712 27.4614C23.8855 28.3808 23.5946 29.2595 23.4957 30.0617L22.007 29.8782ZM24.8499 24.129C25.4948 23.3671 26.2378 22.6192 27.0691 21.9013L28.0495 23.0365C27.2731 23.7071 26.5858 24.3998 25.9949 25.098L24.8499 24.129ZM29.5659 20.0171C30.4066 19.462 31.3066 18.9383 32.2604 18.4558L32.9375 19.7943C32.0346 20.251 31.1845 20.7459 30.3924 21.2688L29.5659 20.0171ZM35.1103 17.2047C36.059 16.8478 37.0479 16.5321 38.0729 16.2652L38.451 17.7168C37.4773 17.9703 36.5385 18.2701 35.6384 18.6086L35.1103 17.2047ZM41.1184 15.6383C41.6259 15.5608 42.1403 15.4954 42.6613 15.4429L42.8117 16.9354C42.3163 16.9853 41.8272 17.0475 41.3449 17.1211L41.1184 15.6383ZM42.6613 15.4429C43.2018 15.3884 43.7288 15.3449 44.2424 15.312L44.3382 16.8089C43.8436 16.8406 43.3349 16.8826 42.8117 16.9354L42.6613 15.4429ZM47.3465 15.2445C48.4551 15.2721 49.4909 15.3589 50.4575 15.5017L50.2383 16.9856C49.3377 16.8526 48.3631 16.7703 47.3092 16.7441L47.3465 15.2445ZM53.5625 16.2247C54.648 16.5851 55.6176 17.0394 56.4787 17.5797L55.6816 18.8503C54.9299 18.3787 54.0706 17.9739 53.0899 17.6483L53.5625 16.2247ZM58.9554 19.6858C59.6763 20.5125 60.2555 21.4297 60.7119 22.4164L59.3505 23.0462C58.9488 22.1778 58.445 21.3828 57.8249 20.6717L58.9554 19.6858ZM61.7115 25.4632C61.9283 26.4708 62.0592 27.5212 62.1193 28.5999L60.6216 28.6834C60.5652 27.6705 60.4431 26.6989 60.245 25.7788L61.7115 25.4632ZM62.1125 31.732C62.0577 32.7506 61.9559 33.7857 61.8176 34.8278L60.3306 34.6303C60.4646 33.6213 60.5622 32.6255 60.6147 31.6513L62.1125 31.732ZM61.3196 37.8774C61.1269 38.8851 60.9091 39.8925 60.6747 40.8912L59.2144 40.5485C59.4448 39.5667 59.6581 38.5799 59.8462 37.5958L61.3196 37.8774ZM59.9263 43.8691C59.6587 44.8745 59.3825 45.863 59.107 46.825L57.6649 46.4121C57.9387 45.4561 58.2123 44.4771 58.4768 43.4833L59.9263 43.8691ZM58.2517 49.7605C57.95 50.7869 57.6627 51.7643 57.4023 52.6836L55.9591 52.275C56.2218 51.3471 56.5113 50.3622 56.8126 49.3375L58.2517 49.7605Z" fill="#367373"/>
</svg>
