<svg width="243" height="157" viewBox="0 0 243 157" fill="none" xmlns="http://www.w3.org/2000/svg">
<path d="M26.6822 1.48917C26.9146 1.1463 26.8251 0.679949 26.4822 0.447546C26.1393 0.215143 25.673 0.304696 25.4406 0.647569L26.6822 1.48917ZM8.38989 90.4235L7.83201 90.9248L8.38989 90.4235ZM159.68 81.626L160.183 82.1824L159.68 81.626ZM157.233 39.5458L157.042 40.2711L157.233 39.5458ZM101.83 124.301L101.172 124.661L101.83 124.301ZM242.713 145.712L234.099 144.821L237.634 152.727L242.713 145.712ZM24.3235 2.32183C24.096 2.668 24.1923 3.13302 24.5384 3.36048C24.8846 3.58794 25.3496 3.49171 25.5771 3.14554L24.3235 2.32183ZM23.4235 6.51782C23.6421 6.16597 23.5341 5.70355 23.1823 5.48497C22.8304 5.26638 22.368 5.37441 22.1494 5.72625L23.4235 6.51782ZM20.0524 9.19065C19.842 9.54741 19.9606 10.0072 20.3173 10.2177C20.6741 10.4282 21.1339 10.3096 21.3444 9.95281L20.0524 9.19065ZM19.3453 13.4272C19.548 13.066 19.4195 12.6089 19.0583 12.4061C18.6971 12.2034 18.2399 12.332 18.0372 12.6932L19.3453 13.4272ZM16.0982 16.2361C15.9032 16.6015 16.0413 17.0558 16.4067 17.2508C16.7722 17.4459 17.2265 17.3077 17.4215 16.9423L16.0982 16.2361ZM15.5696 20.5031C15.7568 20.1336 15.609 19.6823 15.2395 19.4951C14.87 19.3079 14.4187 19.4557 14.2315 19.8252L15.5696 20.5031ZM12.4427 23.4532C12.2636 23.8267 12.4212 24.2747 12.7947 24.4538C13.1682 24.6328 13.6161 24.4753 13.7952 24.1018L12.4427 23.4532ZM12.104 27.7331C12.2746 27.3556 12.1069 26.9113 11.7294 26.7408C11.3519 26.5702 10.9077 26.7379 10.7371 27.1154L12.104 27.7331ZM9.11574 30.8196C8.95426 31.2011 9.13257 31.6412 9.51401 31.8027C9.89545 31.9641 10.3356 31.7858 10.4971 31.4044L9.11574 30.8196ZM8.98168 35.1141C9.13333 34.7286 8.9438 34.2932 8.55834 34.1415C8.17289 33.9899 7.73748 34.1794 7.58583 34.5649L8.98168 35.1141ZM6.15587 38.3506C6.01497 38.7401 6.2165 39.17 6.60601 39.311C6.99552 39.4519 7.42551 39.2503 7.56642 38.8608L6.15587 38.3506ZM6.26113 42.6447C6.39016 42.2511 6.17568 41.8274 5.78207 41.6984C5.38846 41.5694 4.96479 41.7838 4.83576 42.1775L6.26113 42.6447ZM3.63714 46.0484C3.52139 46.4461 3.74997 46.8624 4.14768 46.9781C4.5454 47.0939 4.96164 46.8653 5.07739 46.4676L3.63714 46.0484ZM4.03084 50.3267C4.13159 49.9249 3.88756 49.5175 3.48579 49.4168C3.08401 49.316 2.67664 49.5601 2.57589 49.9618L4.03084 50.3267ZM1.67109 53.916C1.58745 54.3216 1.84852 54.7183 2.25421 54.802C2.65989 54.8856 3.05656 54.6245 3.1402 54.2188L1.67109 53.916ZM2.42812 58.1389C2.49204 57.7296 2.21209 57.3461 1.80284 57.2821C1.39359 57.2182 1.01001 57.4982 0.946084 57.9074L2.42812 58.1389ZM0.427737 61.947C0.386831 62.3592 0.687815 62.7265 1.1 62.7674C1.51219 62.8083 1.8795 62.5073 1.9204 62.0951L0.427737 61.947ZM1.65359 66.0633C1.66751 65.6494 1.3432 65.3025 0.929215 65.2886C0.515236 65.2746 0.168356 65.599 0.154438 66.0129L1.65359 66.0633ZM0.169486 70.0886C0.187323 70.5024 0.537258 70.8234 0.951087 70.8056C1.36492 70.7877 1.68593 70.4378 1.6681 70.024L0.169486 70.0886ZM2.01318 73.9703C1.95786 73.5598 1.58024 73.2719 1.16974 73.3272C0.759234 73.3825 0.4713 73.7601 0.52662 74.1706L2.01318 73.9703ZM1.28514 78.2013C1.38395 78.6036 1.79014 78.8496 2.19239 78.7508C2.59465 78.652 2.84065 78.2458 2.74184 77.8435L1.28514 78.2013ZM3.90859 81.5951C3.76069 81.2082 3.32714 81.0144 2.94023 81.1623C2.55332 81.3102 2.35956 81.7438 2.50746 82.1307L3.90859 81.5951ZM4.24242 85.874C4.44288 86.2365 4.89923 86.3678 5.26171 86.1674C5.62419 85.9669 5.75553 85.5106 5.55507 85.1481L4.24242 85.874ZM7.69484 88.4157C7.44237 88.0873 6.9715 88.0258 6.64312 88.2783C6.31475 88.5308 6.25321 89.0016 6.50569 89.33L7.69484 88.4157ZM9.24865 92.369C9.55097 92.6522 10.0256 92.6366 10.3087 92.3343C10.5919 92.032 10.5764 91.5574 10.274 91.2742L9.24865 92.369ZM13.2686 93.676C12.928 93.4404 12.4608 93.5255 12.2251 93.8661C11.9895 94.2068 12.0746 94.6739 12.4152 94.9096L13.2686 93.676ZM15.8693 97.0027C16.235 97.1973 16.6891 97.0586 16.8837 96.6929C17.0783 96.3272 16.9396 95.8731 16.5739 95.6785L15.8693 97.0027ZM20.0842 97.337C19.7023 97.1767 19.2627 97.3564 19.1024 97.7383C18.9421 98.1203 19.1218 98.5598 19.5037 98.7201L20.0842 97.337ZM23.254 100.129C23.6467 100.261 24.0719 100.049 24.2037 99.6568C24.3356 99.2641 24.1242 98.8389 23.7315 98.707L23.254 100.129ZM27.4741 99.8362C27.0743 99.7281 26.6625 99.9646 26.5544 100.364C26.4463 100.764 26.6828 101.176 27.0827 101.284L27.4741 99.8362ZM30.9676 102.228C31.3724 102.316 31.7718 102.059 31.8598 101.655C31.9478 101.25 31.6911 100.85 31.2863 100.762L30.9676 102.228ZM35.151 101.515C34.7429 101.444 34.3547 101.718 34.2839 102.126C34.2131 102.534 34.4865 102.922 34.8947 102.993L35.151 101.515ZM38.8247 103.6C39.2351 103.656 39.6132 103.368 39.6692 102.958C39.7251 102.548 39.4378 102.17 39.0273 102.114L38.8247 103.6ZM42.9191 102.58C42.5072 102.537 42.1384 102.836 42.0954 103.248C42.0525 103.66 42.3517 104.029 42.7637 104.072L42.9191 102.58ZM46.7266 104.428C47.1396 104.459 47.4998 104.15 47.5311 103.737C47.5625 103.324 47.253 102.963 46.84 102.932L46.7266 104.428ZM50.7831 103.18C50.3695 103.159 50.0172 103.478 49.9963 103.892C49.9754 104.305 50.2938 104.658 50.7075 104.678L50.7831 103.18ZM54.6648 104.833C55.0788 104.844 55.4238 104.518 55.4353 104.104C55.4468 103.69 55.1204 103.345 54.7064 103.333L54.6648 104.833ZM58.6427 103.401C58.2285 103.398 57.8904 103.731 57.8876 104.146C57.8847 104.56 58.2181 104.898 58.6324 104.901L58.6427 103.401ZM62.6111 104.889C63.0253 104.884 63.3569 104.544 63.3518 104.13C63.3467 103.716 63.0068 103.384 62.5926 103.389L62.6111 104.889ZM66.5285 103.305C66.1145 103.318 65.789 103.663 65.8015 104.077C65.8141 104.492 66.1599 104.817 66.5739 104.804L66.5285 103.305ZM70.537 104.651C70.9507 104.631 71.2703 104.28 71.2508 103.866C71.2314 103.453 70.8801 103.133 70.4664 103.153L70.537 104.651ZM74.4091 102.935C73.9957 102.961 73.6817 103.317 73.7078 103.731C73.7338 104.144 74.0901 104.458 74.5035 104.432L74.4091 102.935ZM78.4568 104.152C78.8698 104.12 79.1783 103.759 79.146 103.346C79.1136 102.933 78.7527 102.625 78.3397 102.657L78.4568 104.152ZM82.2703 102.32C81.8579 102.359 81.5546 102.724 81.593 103.137C81.6313 103.549 81.9967 103.852 82.4092 103.814L82.2703 102.32ZM86.3556 103.419C86.7675 103.375 87.0656 103.005 87.0214 102.593C86.9773 102.181 86.6076 101.883 86.1957 101.927L86.3556 103.419ZM90.1155 101.48C89.7043 101.53 89.4113 101.903 89.4611 102.315C89.5109 102.726 89.8846 103.019 90.2959 102.969L90.1155 101.48ZM94.2306 102.465C94.6411 102.41 94.929 102.032 94.8737 101.622C94.8183 101.211 94.4407 100.923 94.0302 100.979L94.2306 102.465ZM97.9303 100.426C97.5206 100.487 97.2378 100.869 97.2986 101.278C97.3594 101.688 97.7409 101.971 98.1506 101.91L97.9303 100.426ZM102.076 101.3C102.485 101.234 102.762 100.849 102.696 100.44C102.63 100.031 102.245 99.7534 101.836 99.8197L102.076 101.3ZM105.726 99.1618C105.318 99.2337 105.046 99.6226 105.118 100.031C105.19 100.438 105.579 100.711 105.986 100.639L105.726 99.1618ZM109.876 99.9272C110.283 99.8498 110.55 99.4572 110.473 99.0503C110.395 98.6434 110.003 98.3762 109.596 98.4536L109.876 99.9272ZM113.478 97.6872C113.073 97.7703 112.811 98.1666 112.894 98.5724C112.977 98.9782 113.373 99.2398 113.779 99.1567L113.478 97.6872ZM117.661 98.3325C118.065 98.2435 118.321 97.8434 118.232 97.4389C118.143 97.0343 117.743 96.7785 117.338 96.8676L117.661 98.3325ZM121.168 95.9943C120.765 96.0895 120.516 96.4935 120.611 96.8966C120.706 97.2997 121.11 97.5494 121.513 97.4542L121.168 95.9943ZM125.378 96.5085C125.779 96.4067 126.022 95.9987 125.92 95.5972C125.819 95.1957 125.41 94.9527 125.009 95.0545L125.378 96.5085ZM128.831 94.0501C128.431 94.159 128.195 94.5712 128.304 94.9709C128.413 95.3705 128.825 95.6062 129.225 95.4973L128.831 94.0501ZM133.041 94.418C133.439 94.3013 133.666 93.8846 133.55 93.4871C133.433 93.0897 133.016 92.8621 132.619 92.9787L133.041 94.418ZM136.37 91.8339C135.975 91.9592 135.756 92.3809 135.882 92.7757C136.007 93.1705 136.429 93.3889 136.824 93.2636L136.37 91.8339ZM140.596 92.0143C140.987 91.879 141.195 91.4519 141.06 91.0604C140.924 90.669 140.497 90.4613 140.106 90.5966L140.596 92.0143ZM143.815 89.2531C143.428 89.4003 143.233 89.8335 143.38 90.2206C143.528 90.6078 143.961 90.8024 144.348 90.6552L143.815 89.2531ZM148.051 89.1702C148.432 89.0085 148.61 88.5683 148.448 88.1869C148.286 87.8056 147.846 87.6276 147.465 87.7893L148.051 89.1702ZM151.033 86.1754C150.66 86.3559 150.504 86.8045 150.685 87.1773C150.866 87.5501 151.314 87.7059 151.687 87.5254L151.033 86.1754ZM155.219 85.6672C155.578 85.4605 155.701 85.002 155.495 84.643C155.288 84.2841 154.829 84.1606 154.47 84.3673L155.219 85.6672ZM157.728 82.2525C157.396 82.5002 157.328 82.9701 157.576 83.3021C157.823 83.6342 158.293 83.7026 158.625 83.4549L157.728 82.2525ZM161.571 80.8719C161.866 80.5811 161.87 80.1062 161.579 79.8112C161.288 79.5162 160.813 79.5128 160.518 79.8036L161.571 80.8719ZM163.022 77.1034C162.755 77.4197 162.795 77.893 163.111 78.1604C163.427 78.4278 163.9 78.3882 164.168 78.0718L163.022 77.1034ZM166.492 75.0385C166.728 74.6977 166.642 74.2306 166.302 73.9951C165.961 73.7596 165.494 73.8449 165.258 74.1856L166.492 75.0385ZM167.186 71.0634C166.987 71.4269 167.121 71.8826 167.485 72.0812C167.848 72.2798 168.304 72.1462 168.502 71.7827L167.186 71.0634ZM170.148 68.3223C170.304 67.9386 170.12 67.501 169.736 67.345C169.352 67.189 168.915 67.3735 168.759 67.7572L170.148 68.3223ZM169.924 64.2962C169.817 64.6964 170.055 65.1075 170.455 65.2143C170.855 65.3211 171.266 65.0833 171.373 64.6831L169.924 64.2962ZM172.109 60.8992C172.159 60.488 171.866 60.1142 171.455 60.0643C171.044 60.0144 170.67 60.3073 170.62 60.7185L172.109 60.8992ZM170.777 57.0953C170.793 57.5092 171.141 57.8323 171.555 57.8168C171.969 57.8014 172.292 57.4533 172.276 57.0394L170.777 57.0953ZM171.792 53.1906C171.703 52.786 171.303 52.5302 170.899 52.6191C170.494 52.7081 170.238 53.1081 170.327 53.5127L171.792 53.1906ZM169.215 50.0967C169.382 50.4754 169.825 50.6465 170.204 50.4788C170.583 50.3111 170.754 49.8681 170.586 49.4894L169.215 50.0967ZM168.633 46.1095C168.388 45.7755 167.919 45.7033 167.585 45.9482C167.251 46.1931 167.179 46.6625 167.424 46.9965L168.633 46.1095ZM165.004 44.359C165.315 44.6321 165.789 44.601 166.062 44.2895C166.335 43.9781 166.304 43.5042 165.993 43.2311L165.004 44.359ZM162.815 40.9816C162.455 40.7773 161.997 40.9039 161.793 41.2642C161.589 41.6246 161.715 42.0823 162.076 42.2865L162.815 40.9816ZM158.781 40.8015C159.172 40.9381 159.6 40.7319 159.736 40.3409C159.873 39.9498 159.667 39.5221 159.276 39.3854L158.781 40.8015ZM155.436 38.4235C155.026 38.3662 154.647 38.6524 154.59 39.0626C154.533 39.4728 154.819 39.8518 155.229 39.9091L155.436 38.4235ZM151.507 39.785C151.921 39.7586 152.234 39.4021 152.208 38.9887C152.182 38.5754 151.825 38.2617 151.412 38.2881L151.507 39.785ZM147.456 38.8692C147.052 38.9601 146.798 39.3614 146.889 39.7655C146.98 40.1697 147.382 40.4235 147.786 40.3326L147.456 38.8692ZM144.132 41.404C144.522 41.2643 144.725 40.8349 144.586 40.445C144.446 40.055 144.016 39.8522 143.626 39.9919L144.132 41.404ZM139.983 41.5072C139.609 41.684 139.448 42.131 139.625 42.5056C139.802 42.8802 140.249 43.0406 140.624 42.8638L139.983 41.5072ZM137.237 44.6349C137.597 44.4289 137.721 43.9706 137.515 43.6112C137.309 43.2518 136.851 43.1275 136.491 43.3334L137.237 44.6349ZM133.146 45.4072C132.801 45.6368 132.708 46.1024 132.937 46.4472C133.167 46.7919 133.633 46.8851 133.977 46.6555L133.146 45.4072ZM130.844 48.881C131.175 48.6316 131.241 48.1613 130.991 47.8306C130.742 47.4999 130.272 47.4341 129.941 47.6835L130.844 48.881ZM126.87 50.1307C126.553 50.3971 126.512 50.8702 126.778 51.1874C127.045 51.5046 127.518 51.5457 127.835 51.2793L126.87 50.1307ZM124.947 53.827C125.251 53.5457 125.269 53.0712 124.988 52.7672C124.707 52.4631 124.232 52.4446 123.928 52.7259L124.947 53.827ZM121.111 55.4523C120.82 55.7469 120.823 56.2218 121.117 56.513C121.412 56.8042 121.887 56.8014 122.178 56.5068L121.111 55.4523ZM119.527 59.3059C119.806 58.9992 119.783 58.5248 119.476 58.2464C119.169 57.968 118.695 57.991 118.416 58.2977L119.527 59.3059ZM115.844 61.2527C115.578 61.5706 115.621 62.0436 115.939 62.3091C116.257 62.5746 116.73 62.5321 116.995 62.2142L115.844 61.2527ZM114.584 65.2241C114.836 64.8956 114.775 64.4248 114.446 64.1724C114.118 63.92 113.647 63.9817 113.394 64.3102L114.584 65.2241ZM111.071 67.4647C110.832 67.8031 110.913 68.2711 111.252 68.5099C111.59 68.7487 112.058 68.6679 112.297 68.3294L111.071 67.4647ZM110.139 71.5253C110.364 71.1773 110.264 70.713 109.916 70.4884C109.568 70.2638 109.103 70.3638 108.879 70.7118L110.139 71.5253ZM106.823 74.0483C106.614 74.4055 106.733 74.865 107.091 75.0747C107.448 75.2844 107.907 75.1648 108.117 74.8075L106.823 74.0483ZM106.24 78.1727C106.434 77.8065 106.294 77.3527 105.928 77.159C105.562 76.9653 105.108 77.1051 104.914 77.4712L106.24 78.1727ZM103.161 80.9784C102.984 81.3531 103.145 81.8 103.52 81.9764C103.895 82.1529 104.342 81.9921 104.518 81.6173L103.161 80.9784ZM102.964 85.1382C103.122 84.7552 102.939 84.3169 102.556 84.1592C102.173 84.0016 101.735 84.1843 101.577 84.5673L102.964 85.1382ZM100.18 88.2354C100.043 88.6263 100.248 89.0543 100.639 89.1912C101.03 89.3282 101.458 89.1224 101.595 88.7314L100.18 88.2354ZM100.429 92.3919C100.543 91.9937 100.313 91.5784 99.9145 91.4644C99.5163 91.3503 99.1011 91.5807 98.987 91.9789L100.429 92.3919ZM98.0233 95.7921C97.9348 96.1967 98.1911 96.5965 98.5958 96.6849C99.0004 96.7734 99.4002 96.5171 99.4886 96.1124L98.0233 95.7921ZM98.8 99.8828C98.8598 99.4729 98.576 99.0922 98.1661 99.0324C97.7563 98.9726 97.3755 99.2563 97.3157 99.6662L98.8 99.8828ZM96.896 103.588C96.8682 104.001 97.1808 104.358 97.5941 104.386C98.0073 104.414 98.3649 104.101 98.3926 103.688L96.896 103.588ZM98.2984 107.507C98.2905 107.093 97.9483 106.764 97.5342 106.772C97.12 106.78 96.7908 107.122 96.7987 107.536L98.2984 107.507ZM97.0594 111.483C97.1066 111.895 97.4784 112.19 97.8899 112.143C98.3015 112.096 98.5968 111.724 98.5496 111.312L97.0594 111.483ZM99.1753 115.066C99.0859 114.662 98.6855 114.406 98.2811 114.495C97.8766 114.585 97.6212 114.985 97.7106 115.39L99.1753 115.066ZM98.7763 119.208C98.9097 119.6 99.3357 119.81 99.7279 119.677C100.12 119.543 100.33 119.117 100.196 118.725L98.7763 119.208ZM101.621 122.242C101.444 121.868 100.997 121.708 100.622 121.885C100.248 122.063 100.089 122.51 100.266 122.884L101.621 122.242ZM102.202 126.414C102.422 126.764 102.885 126.87 103.236 126.65C103.586 126.429 103.692 125.967 103.472 125.616L102.202 126.414ZM105.73 128.792C105.472 128.469 105 128.415 104.676 128.674C104.352 128.932 104.299 129.404 104.557 129.728L105.73 128.792ZM107.246 132.767C107.535 133.063 108.01 133.069 108.306 132.78C108.603 132.49 108.608 132.015 108.319 131.719L107.246 132.767ZM111.18 134.396C110.865 134.126 110.392 134.162 110.122 134.477C109.852 134.791 109.889 135.264 110.203 135.534L111.18 134.396ZM113.373 138.042C113.707 138.287 114.176 138.214 114.421 137.88C114.665 137.546 114.593 137.076 114.258 136.832L113.373 138.042ZM117.511 139.043C117.161 138.822 116.698 138.926 116.477 139.276C116.255 139.626 116.36 140.09 116.71 140.311L117.511 139.043ZM120.179 142.361C120.542 142.561 120.998 142.43 121.198 142.067C121.398 141.705 121.267 141.248 120.904 141.048L120.179 142.361ZM124.41 142.864C124.037 142.683 123.588 142.838 123.407 143.211C123.226 143.583 123.382 144.032 123.754 144.213L124.41 142.864ZM127.415 145.885C127.796 146.048 128.237 145.872 128.4 145.492C128.564 145.111 128.387 144.67 128.007 144.507L127.415 145.885ZM131.679 145.991C131.292 145.844 130.859 146.038 130.711 146.425C130.564 146.812 130.759 147.246 131.146 147.393L131.679 145.991ZM134.925 148.749C135.317 148.881 135.743 148.671 135.876 148.278C136.008 147.886 135.798 147.46 135.405 147.328L134.925 148.749ZM139.172 148.527C138.775 148.408 138.357 148.633 138.238 149.03C138.119 149.427 138.344 149.845 138.741 149.964L139.172 148.527ZM142.598 151.053C142.998 151.16 143.409 150.921 143.515 150.521C143.622 150.121 143.383 149.71 142.983 149.604L142.598 151.053ZM146.831 150.565C146.428 150.47 146.024 150.721 145.93 151.124C145.835 151.527 146.085 151.931 146.489 152.025L146.831 150.565ZM150.407 152.887C150.813 152.97 151.21 152.709 151.293 152.303C151.377 151.898 151.115 151.501 150.71 151.418L150.407 152.887ZM154.604 152.166C154.197 152.093 153.807 152.365 153.734 152.772C153.661 153.18 153.932 153.57 154.34 153.643L154.604 152.166ZM158.287 154.299C158.697 154.362 159.079 154.081 159.142 153.672C159.205 153.262 158.925 152.88 158.515 152.817L158.287 154.299ZM162.446 153.374C162.035 153.321 161.659 153.611 161.605 154.021C161.552 154.432 161.841 154.808 162.252 154.862L162.446 153.374ZM166.23 155.334C166.642 155.378 167.011 155.08 167.056 154.668C167.1 154.257 166.802 153.887 166.39 153.843L166.23 155.334ZM170.342 154.224C169.929 154.188 169.566 154.494 169.53 154.907C169.495 155.32 169.801 155.683 170.214 155.718L170.342 154.224ZM174.204 156.018C174.617 156.044 174.974 155.731 175.001 155.317C175.027 154.904 174.714 154.547 174.301 154.521L174.204 156.018ZM178.267 154.735C177.853 154.717 177.503 155.038 177.485 155.451C177.467 155.865 177.787 156.215 178.201 156.234L178.267 154.735ZM182.2 156.367C182.614 156.377 182.958 156.049 182.968 155.635C182.977 155.221 182.649 154.877 182.235 154.868L182.2 156.367ZM186.206 154.92C185.791 154.919 185.455 155.253 185.453 155.668C185.452 156.082 185.787 156.419 186.201 156.42L186.206 154.92ZM190.205 156.391C190.619 156.384 190.949 156.042 190.942 155.628C190.935 155.214 190.593 154.884 190.179 154.891L190.205 156.391ZM194.15 154.781C193.736 154.797 193.413 155.145 193.429 155.559C193.444 155.973 193.793 156.296 194.207 156.28L194.15 154.781ZM198.201 156.087C198.614 156.062 198.93 155.707 198.905 155.294C198.881 154.88 198.526 154.565 198.112 154.589L198.201 156.087ZM202.072 154.313C201.659 154.347 201.351 154.708 201.385 155.121C201.418 155.534 201.78 155.842 202.192 155.809L202.072 154.313ZM206.184 155.443C206.596 155.4 206.896 155.032 206.854 154.62C206.811 154.208 206.443 153.908 206.031 153.95L206.184 155.443ZM209.976 153.498C209.565 153.55 209.274 153.925 209.326 154.336C209.378 154.747 209.754 155.038 210.164 154.986L209.976 153.498ZM214.129 154.436C214.538 154.374 214.82 153.991 214.758 153.582C214.696 153.172 214.314 152.89 213.904 152.953L214.129 154.436ZM217.81 152.309C217.402 152.382 217.131 152.771 217.204 153.179C217.276 153.587 217.666 153.858 218.074 153.786L217.81 152.309ZM222.01 153.027C222.415 152.942 222.676 152.545 222.592 152.14C222.507 151.734 222.11 151.474 221.705 151.558L222.01 153.027ZM225.579 150.691C225.177 150.788 224.929 151.193 225.025 151.596C225.122 151.999 225.527 152.247 225.93 152.15L225.579 150.691ZM229.819 151.146C230.218 151.035 230.452 150.622 230.341 150.223C230.231 149.824 229.818 149.59 229.419 149.7L229.819 151.146ZM233.214 148.571C232.819 148.697 232.601 149.119 232.727 149.514C232.853 149.908 233.275 150.126 233.67 150L233.214 148.571ZM237.473 148.694C237.861 148.551 238.06 148.12 237.916 147.731C237.773 147.343 237.342 147.144 236.953 147.287L237.473 148.694ZM240.62 145.827C240.24 145.99 240.064 146.431 240.228 146.812C240.391 147.193 240.832 147.368 241.213 147.205L240.62 145.827ZM25.4406 0.647569C25.074 1.18839 24.7013 1.74677 24.3235 2.32183L25.5771 3.14554C25.9511 2.57632 26.3198 2.0239 26.6822 1.48917L25.4406 0.647569ZM22.1494 5.72625C21.4596 6.83657 20.759 7.99297 20.0524 9.19065L21.3444 9.95281C22.0452 8.76493 22.7398 7.61833 23.4235 6.51782L22.1494 5.72625ZM18.0372 12.6932C17.3908 13.8451 16.7433 15.0272 16.0982 16.2361L17.4215 16.9423C18.0616 15.7429 18.704 14.57 19.3453 13.4272L18.0372 12.6932ZM14.2315 19.8252C13.6289 21.0147 13.0316 22.225 12.4427 23.4532L13.7952 24.1018C14.3793 22.8837 14.9718 21.6831 15.5696 20.5031L14.2315 19.8252ZM10.7371 27.1154C10.185 28.337 9.64364 29.5727 9.11574 30.8196L10.4971 31.4044C11.0201 30.1689 11.5567 28.9442 12.104 27.7331L10.7371 27.1154ZM7.58583 34.5649C7.09234 35.8192 6.61477 37.082 6.15587 38.3506L7.56642 38.8608C8.0204 37.6058 8.49305 36.356 8.98168 35.1141L7.58583 34.5649ZM4.83576 42.1775C4.41356 43.4654 4.01308 44.7566 3.63714 46.0484L5.07739 46.4676C5.44841 45.1927 5.8439 43.9175 6.26113 42.6447L4.83576 42.1775ZM2.57589 49.9618C2.24459 51.283 1.94197 52.6021 1.67109 53.916L3.1402 54.2188C3.40656 52.9268 3.70441 51.6285 4.03084 50.3267L2.57589 49.9618ZM0.946084 57.9074C0.734256 59.2636 0.560294 60.6113 0.427737 61.947L1.9204 62.0951C2.05002 60.789 2.22033 59.4692 2.42812 58.1389L0.946084 57.9074ZM0.154438 66.0129C0.10816 67.3894 0.111764 68.7494 0.169486 70.0886L1.6681 70.024C1.61213 68.7256 1.60851 67.4042 1.65359 66.0633L0.154438 66.0129ZM0.52662 74.1706C0.711618 75.5434 0.962719 76.8887 1.28514 78.2013L2.74184 77.8435C2.433 76.5862 2.19152 75.2937 2.01318 73.9703L0.52662 74.1706ZM2.50746 82.1307C3.00089 83.4215 3.57729 84.6713 4.24242 85.874L5.55507 85.1481C4.92537 84.0094 4.37816 82.8235 3.90859 81.5951L2.50746 82.1307ZM6.50569 89.33C6.92472 89.875 7.36661 90.4068 7.83201 90.9248L8.94778 89.9223C8.50808 89.4329 8.09065 88.9305 7.69484 88.4157L6.50569 89.33ZM7.83201 90.9248C8.27847 91.4217 8.75108 91.903 9.24865 92.369L10.274 91.2742C9.80667 90.8365 9.36435 90.3859 8.94778 89.9223L7.83201 90.9248ZM12.4152 94.9096C13.4925 95.6548 14.646 96.3518 15.8693 97.0027L16.5739 95.6785C15.3972 95.0524 14.2939 94.3853 13.2686 93.676L12.4152 94.9096ZM19.5037 98.7201C20.704 99.2238 21.9556 99.693 23.254 100.129L23.7315 98.707C22.465 98.2818 21.248 97.8254 20.0842 97.337L19.5037 98.7201ZM27.0827 101.284C28.3426 101.625 29.6387 101.939 30.9676 102.228L31.2863 100.762C29.9801 100.478 28.7084 100.17 27.4741 99.8362L27.0827 101.284ZM34.8947 102.993C36.1797 103.216 37.4905 103.418 38.8247 103.6L39.0273 102.114C37.7101 101.934 36.4172 101.735 35.151 101.515L34.8947 102.993ZM42.7637 104.072C44.0663 104.208 45.388 104.326 46.7266 104.428L46.84 102.932C45.5148 102.832 44.2072 102.714 42.9191 102.58L42.7637 104.072ZM50.7075 104.678C52.0135 104.744 53.3332 104.796 54.6648 104.833L54.7064 103.333C53.3858 103.296 52.0774 103.246 50.7831 103.18L50.7075 104.678ZM58.6324 104.901C59.9495 104.91 61.2763 104.906 62.6111 104.889L62.5926 103.389C61.2671 103.406 59.9499 103.41 58.6427 103.401L58.6324 104.901ZM66.5739 104.804C67.8893 104.765 69.2108 104.713 70.537 104.651L70.4664 103.153C69.1484 103.215 67.8353 103.266 66.5285 103.305L66.5739 104.804ZM74.5035 104.432C75.8187 104.349 77.1369 104.256 78.4568 104.152L78.3397 102.657C77.0273 102.76 75.7166 102.853 74.4091 102.935L74.5035 104.432ZM82.4092 103.814C83.7249 103.692 85.0409 103.56 86.3556 103.419L86.1957 101.927C84.8879 102.068 83.579 102.199 82.2703 102.32L82.4092 103.814ZM90.2959 102.969C91.6106 102.81 92.9227 102.642 94.2306 102.465L94.0302 100.979C92.7288 101.154 91.4235 101.321 90.1155 101.48L90.2959 102.969ZM98.1506 101.91C99.4652 101.715 100.774 101.511 102.076 101.3L101.836 99.8197C100.541 100.03 99.2383 100.232 97.9303 100.426L98.1506 101.91ZM105.986 100.639C107.292 100.409 108.589 100.172 109.876 99.9272L109.596 98.4536C108.316 98.6969 107.026 98.9331 105.726 99.1618L105.986 100.639ZM113.779 99.1567C115.087 98.889 116.381 98.6141 117.661 98.3325L117.338 96.8676C116.066 97.1476 114.779 97.4209 113.478 97.6872L113.779 99.1567ZM121.513 97.4542C122.82 97.1456 124.109 96.8302 125.378 96.5085L125.009 95.0545C123.748 95.3742 122.467 95.6876 121.168 95.9943L121.513 97.4542ZM129.225 95.4973C130.522 95.1438 131.795 94.7838 133.041 94.418L132.619 92.9787C131.382 93.3417 130.119 93.699 128.831 94.0501L129.225 95.4973ZM136.824 93.2636C138.117 92.853 139.375 92.4363 140.596 92.0143L140.106 90.5966C138.898 91.0143 137.651 91.427 136.37 91.8339L136.824 93.2636ZM144.348 90.6552C145.636 90.1657 146.872 89.6703 148.051 89.1702L147.465 87.7893C146.305 88.2813 145.087 88.7697 143.815 89.2531L144.348 90.6552ZM151.687 87.5254C152.955 86.9112 154.135 86.2911 155.219 85.6672L154.47 84.3673C153.422 84.9709 152.274 85.5744 151.033 86.1754L151.687 87.5254ZM158.625 83.4549C159.191 83.0331 159.711 82.6088 160.183 82.1824L159.177 81.0696C158.745 81.4604 158.261 81.855 157.728 82.2525L158.625 83.4549ZM160.183 82.1824C160.66 81.7513 161.123 81.3143 161.571 80.8719L160.518 79.8036C160.085 80.2308 159.638 80.6529 159.177 81.0696L160.183 82.1824ZM164.168 78.0718C165.008 77.0785 165.782 76.0656 166.492 75.0385L165.258 74.1856C164.576 75.1722 163.831 76.1467 163.022 77.1034L164.168 78.0718ZM168.502 71.7827C169.128 70.637 169.677 69.4811 170.148 68.3223L168.759 67.7572C168.31 68.8621 167.785 69.9665 167.186 71.0634L168.502 71.7827ZM171.373 64.6831C171.712 63.4135 171.957 62.149 172.109 60.8992L170.62 60.7185C170.477 61.8964 170.245 63.092 169.924 64.2962L171.373 64.6831ZM172.276 57.0394C172.227 55.7231 172.066 54.4359 171.792 53.1906L170.327 53.5127C170.581 54.6667 170.731 55.8647 170.777 57.0953L172.276 57.0394ZM170.586 49.4894C170.058 48.2964 169.407 47.1648 168.633 46.1095L167.424 46.9965C168.132 47.9626 168.729 49.0001 169.215 50.0967L170.586 49.4894ZM165.993 43.2311C165.039 42.3952 163.98 41.6416 162.815 40.9816L162.076 42.2865C163.153 42.8973 164.129 43.5919 165.004 44.359L165.993 43.2311ZM159.276 39.3854C158.678 39.1766 158.061 38.988 157.424 38.8204L157.042 40.2711C157.642 40.4288 158.222 40.606 158.781 40.8015L159.276 39.3854ZM157.424 38.8204C156.774 38.6495 156.111 38.5177 155.436 38.4235L155.229 39.9091C155.847 39.9954 156.451 40.1157 157.042 40.2711L157.424 38.8204ZM151.412 38.2881C150.119 38.3707 148.797 38.5674 147.456 38.8692L147.786 40.3326C149.057 40.0464 150.3 39.8621 151.507 39.785L151.412 38.2881ZM143.626 39.9919C142.421 40.4238 141.205 40.9307 139.983 41.5072L140.624 42.8638C141.805 42.3063 142.976 41.8182 144.132 41.404L143.626 39.9919ZM136.491 43.3334C135.376 43.9724 134.26 44.665 133.146 45.4072L133.977 46.6555C135.065 45.9309 136.153 45.2562 137.237 44.6349L136.491 43.3334ZM129.941 47.6835C128.911 48.4602 127.887 49.2769 126.87 50.1307L127.835 51.2793C128.832 50.4418 129.836 49.6414 130.844 48.881L129.941 47.6835ZM123.928 52.7259C122.978 53.6045 122.038 54.5142 121.111 55.4523L122.178 56.5068C123.09 55.5843 124.014 54.6901 124.947 53.827L123.928 52.7259ZM118.416 58.2977C117.544 59.259 116.686 60.2447 115.844 61.2527L116.995 62.2142C117.824 61.222 118.669 60.2518 119.527 59.3059L118.416 58.2977ZM113.394 64.3102C112.601 65.3431 111.826 66.3953 111.071 67.4647L112.297 68.3294C113.04 67.2768 113.803 66.2409 114.584 65.2241L113.394 64.3102ZM108.879 70.7118C108.17 71.8097 107.484 72.9226 106.823 74.0483L108.117 74.8075C108.767 73.7005 109.442 72.6057 110.139 71.5253L108.879 70.7118ZM104.914 77.4712C104.301 78.6301 103.716 79.7999 103.161 80.9784L104.518 81.6173C105.063 80.4605 105.637 79.3115 106.24 78.1727L104.914 77.4712ZM101.577 84.5673C101.077 85.784 100.61 87.0075 100.18 88.2354L101.595 88.7314C102.016 87.5296 102.473 86.3311 102.964 85.1382L101.577 84.5673ZM98.987 91.9789C98.6234 93.2485 98.3012 94.5204 98.0233 95.7921L99.4886 96.1124C99.7596 94.8731 100.074 93.6321 100.429 92.3919L98.987 91.9789ZM97.3157 99.6662C97.1244 100.977 96.9834 102.285 96.896 103.588L98.3926 103.688C98.4773 102.426 98.6141 101.157 98.8 99.8828L97.3157 99.6662ZM96.7987 107.536C96.8242 108.862 96.9099 110.179 97.0594 111.483L98.5496 111.312C98.4057 110.057 98.323 108.788 98.2984 107.507L96.7987 107.536ZM97.7106 115.39C97.9957 116.68 98.3498 117.954 98.7763 119.208L100.196 118.725C99.7882 117.525 99.4488 116.304 99.1753 115.066L97.7106 115.39ZM100.266 122.884C100.549 123.482 100.851 124.075 101.172 124.661L102.488 123.94C102.181 123.38 101.892 122.814 101.621 122.242L100.266 122.884ZM101.172 124.661C101.497 125.254 101.84 125.838 102.202 126.414L103.472 125.616C103.126 125.065 102.798 124.507 102.488 123.94L101.172 124.661ZM104.557 129.728C105.392 130.774 106.289 131.787 107.246 132.767L108.319 131.719C107.396 130.773 106.532 129.798 105.73 128.792L104.557 129.728ZM110.203 135.534C111.212 136.399 112.269 137.235 113.373 138.042L114.258 136.832C113.185 136.046 112.157 135.234 111.18 134.396L110.203 135.534ZM116.71 140.311C117.829 141.019 118.987 141.703 120.179 142.361L120.904 141.048C119.737 140.403 118.605 139.735 117.511 139.043L116.71 140.311ZM123.754 144.213C124.946 144.792 126.167 145.349 127.415 145.885L128.007 144.507C126.78 143.98 125.58 143.432 124.41 142.864L123.754 144.213ZM131.146 147.393C132.384 147.864 133.644 148.316 134.925 148.749L135.405 147.328C134.142 146.901 132.899 146.455 131.679 145.991L131.146 147.393ZM138.741 149.964C140.01 150.345 141.296 150.708 142.598 151.053L142.983 149.604C141.696 149.262 140.425 148.903 139.172 148.527L138.741 149.964ZM146.489 152.025C147.783 152.329 149.089 152.616 150.407 152.887L150.71 151.418C149.405 151.149 148.111 150.865 146.831 150.565L146.489 152.025ZM154.34 153.643C155.647 153.877 156.963 154.095 158.287 154.299L158.515 152.817C157.203 152.615 155.899 152.398 154.604 152.166L154.34 153.643ZM162.252 154.862C163.572 155.034 164.899 155.191 166.23 155.334L166.39 153.843C165.07 153.701 163.755 153.545 162.446 153.374L162.252 154.862ZM170.214 155.718C171.541 155.832 172.872 155.932 174.204 156.018L174.301 154.521C172.979 154.435 171.659 154.337 170.342 154.224L170.214 155.718ZM178.201 156.234C179.534 156.292 180.868 156.336 182.2 156.367L182.235 154.868C180.913 154.837 179.59 154.793 178.267 154.735L178.201 156.234ZM186.201 156.42C187.539 156.424 188.874 156.414 190.205 156.391L190.179 154.891C188.858 154.914 187.533 154.924 186.206 154.92L186.201 156.42ZM194.207 156.28C195.544 156.229 196.876 156.165 198.201 156.087L198.112 154.589C196.798 154.667 195.477 154.731 194.15 154.781L194.207 156.28ZM202.192 155.809C203.533 155.701 204.864 155.579 206.184 155.443L206.031 153.95C204.721 154.085 203.401 154.206 202.072 154.313L202.192 155.809ZM210.164 154.986C211.5 154.817 212.822 154.634 214.129 154.436L213.904 152.953C212.609 153.149 211.299 153.331 209.976 153.498L210.164 154.986ZM218.074 153.786C219.404 153.548 220.717 153.295 222.01 153.027L221.705 151.558C220.426 151.824 219.127 152.074 217.81 152.309L218.074 153.786ZM225.93 152.15C227.252 151.832 228.549 151.497 229.819 151.146L229.419 149.7C228.166 150.047 226.885 150.378 225.579 150.691L225.93 152.15ZM233.67 150C234.972 149.584 236.241 149.149 237.473 148.694L236.953 147.287C235.744 147.734 234.496 148.162 233.214 148.571L233.67 150Z" fill="#367373"/>
</svg>
