<svg width="28" height="28" viewBox="0 0 28 28" fill="none" xmlns="http://www.w3.org/2000/svg">
<path fill-rule="evenodd" clip-rule="evenodd" d="M14.0217 16.5078L24.1438 26.6299C24.4813 26.9559 24.9333 27.1362 25.4024 27.1321C25.8716 27.1281 26.3204 26.9399 26.6521 26.6081C26.9839 26.2764 27.172 25.8276 27.1761 25.3584C27.1802 24.8893 26.9998 24.4373 26.6739 24.0998L16.5518 13.9777L26.6739 3.8556C26.9998 3.51814 27.1802 3.06615 27.1761 2.597C27.172 2.12785 26.9839 1.67907 26.6521 1.34732C26.3204 1.01557 25.8716 0.827387 25.4024 0.82331C24.9333 0.819233 24.4813 0.999585 24.1438 1.32552L14.0217 11.4476L3.89958 1.32552C3.56059 1.00764 3.11123 0.834116 2.64658 0.841661C2.18193 0.849207 1.73844 1.03723 1.40995 1.36595C1.08147 1.69467 0.893755 2.13829 0.886539 2.60295C0.879322 3.06761 1.05317 3.51684 1.37129 3.8556L11.4916 13.9777L1.3695 24.0998C1.1986 24.2649 1.06229 24.4623 0.968511 24.6806C0.874735 24.899 0.825374 25.1337 0.82331 25.3713C0.821245 25.6089 0.866517 25.8445 0.956485 26.0644C1.04645 26.2843 1.17932 26.4841 1.34732 26.6521C1.51532 26.8201 1.7151 26.953 1.935 27.0429C2.1549 27.1329 2.39052 27.1782 2.6281 27.1761C2.86568 27.1741 3.10048 27.1247 3.31878 27.0309C3.53708 26.9371 3.73452 26.8008 3.89958 26.6299L14.0217 16.5078Z" fill="#FF0055"/>
</svg>
