<svg width="100" height="100" viewBox="0 0 100 100" fill="none" xmlns="http://www.w3.org/2000/svg">
<g filter="url(#filter0_d_223_443)">
<rect x="10" y="6" width="80" height="80" rx="40" fill="white"/>
<path d="M49.9366 24.4168L57.1964 27.7747C57.5477 26.8678 57.6406 25.9023 57.4907 24.975C57.3009 23.8019 56.7177 22.6861 55.7773 21.8247C54.8362 20.9626 53.6543 20.4644 52.4379 20.3497C51.2188 20.235 49.9597 20.5026 48.866 21.1722C47.8876 21.7713 47.1492 22.6254 46.705 23.6002C47.7899 23.6648 48.8789 23.9271 49.9163 24.4069L49.9366 24.4168ZM47.3248 50.387C47.2027 50.8326 46.7308 51.0975 46.2724 50.9789C45.8141 50.8602 45.5415 50.4015 45.6636 49.956C45.7815 49.5316 45.7395 49.0946 45.5693 48.7163C45.3978 48.338 45.0981 48.0131 44.7001 47.8108C44.2993 47.6111 43.8525 47.5577 43.4355 47.6381C43.0185 47.7185 42.6266 47.9353 42.3384 48.2701C42.055 48.599 41.9174 49.0096 42.0177 49.5032C42.1269 50.0397 42.4896 50.6816 43.188 51.4389C44.1102 52.4387 44.6017 53.3502 44.7672 54.1654C44.9808 55.2127 44.6845 56.0859 44.0763 56.7931C43.5291 57.4291 42.7893 57.8377 41.9974 57.9913C41.5309 58.0822 41.044 58.0829 40.5667 57.9886L40.2494 58.6372C40.0453 59.0537 39.5306 59.231 39.1021 59.0326C38.6736 58.8342 38.4912 58.334 38.6953 57.9175L39.0072 57.2808C38.5448 56.919 38.1854 56.4563 37.9528 55.9409C37.6294 55.2232 37.5501 54.4001 37.7718 53.6019C37.8938 53.1564 38.3658 52.8915 38.8241 53.0101C39.2825 53.1287 39.555 53.5874 39.433 54.033C39.315 54.4574 39.3564 54.895 39.5272 55.274C39.6968 55.6496 39.9985 55.9732 40.3979 56.1756C40.7938 56.3792 41.2413 56.4319 41.6611 56.3509C42.0808 56.2711 42.47 56.055 42.7581 55.7202C43.0416 55.3906 43.1792 54.9794 43.0788 54.4857C42.9697 53.9493 42.6076 53.3073 41.9092 52.5501C40.9871 51.5503 40.4955 50.6381 40.3294 49.8235C40.1158 48.777 40.4121 47.903 41.0203 47.1972C41.5682 46.5605 42.3086 46.1499 43.0992 45.997C43.567 45.9068 44.0539 45.9054 44.5305 45.9984L44.8472 45.3525C45.0513 44.936 45.5659 44.7587 45.9944 44.957C46.423 45.1554 46.6054 45.6556 46.4013 46.0722L46.0887 46.7108C46.5525 47.0726 46.9112 47.5346 47.1437 48.0494C47.4672 48.7664 47.5465 49.5896 47.3248 50.387ZM58.7526 28.4944L59.9263 29.0374C62.1055 30.0451 63.663 31.8286 64.4142 33.8875C65.0475 35.6201 65.1099 37.5518 64.4942 39.3827L71.2849 54.4653C72.0748 56.2527 72.0443 58.191 71.3581 59.8762C70.6699 61.568 69.3179 63.0127 67.4743 63.7963L59.7276 67.0613C58.1186 67.7394 56.395 67.8212 54.8307 67.3987C53.6679 67.0857 52.5912 66.4925 51.7097 65.6594L51.6961 65.6871C50.6594 67.8047 48.826 69.3179 46.7064 70.0488C44.5902 70.7797 42.1859 70.7296 40.0087 69.7219L29.9973 65.0913C27.8201 64.0843 26.2626 62.3009 25.51 60.2413C24.7587 58.185 24.8103 55.848 25.8463 53.7318L38.2396 28.4173C39.2777 26.3135 41.1071 24.8083 43.2172 24.08C43.7427 23.8988 44.2864 23.7656 44.8397 23.6832C44.873 23.5804 44.9089 23.4776 44.9469 23.3761C45.4934 21.9189 46.526 20.6318 47.9506 19.7592C49.3738 18.8879 51.0127 18.5393 52.5993 18.6889C54.1893 18.8385 55.7298 19.4877 56.9544 20.6081C58.1782 21.7291 58.937 23.1857 59.1858 24.7206C59.3879 25.9728 59.2516 27.2778 58.7526 28.4944ZM52.2067 31.3389C52.68 31.3138 53.0854 31.6671 53.1112 32.1271C53.137 32.5871 52.7735 32.9813 52.3003 33.0063C51.5443 33.0478 50.8031 32.9753 50.0966 32.8033C50.1136 32.8679 50.1332 32.9318 50.1563 32.9944C50.3414 33.5013 50.7265 33.9402 51.2635 34.1887C51.8053 34.4391 52.4006 34.4523 52.9234 34.2717C53.4319 34.0964 53.8747 33.7359 54.1324 33.2343L54.1744 33.1487C54.4097 32.6366 54.4178 32.0757 54.2374 31.5827C54.0578 31.0891 53.6869 30.6594 53.1702 30.4076L53.101 30.3767C52.5681 30.1381 51.9843 30.1282 51.4703 30.3048C51.0316 30.4557 50.6418 30.7457 50.376 31.1478C50.9591 31.3046 51.5761 31.3732 52.2067 31.3389ZM48.314 32.1205C48.1025 32.0065 47.897 31.8833 47.6984 31.7501C46.3857 30.8723 45.3618 29.5779 44.8499 28.0179C44.5719 27.169 44.4627 26.2991 44.5102 25.4482C44.2661 25.5055 44.0254 25.5747 43.7894 25.6565C42.0943 26.2411 40.6243 27.4517 39.7903 29.1442L27.4004 54.4482C26.5678 56.1485 26.5264 58.0288 27.1319 59.6851C27.736 61.3386 28.9877 62.7714 30.7377 63.5808L40.7491 68.2113C42.4984 69.0207 44.4316 69.0602 46.1341 68.4723C47.8319 67.8871 49.3026 66.6751 50.1359 64.9806L62.5232 39.68C63.3558 37.9802 63.3978 36.0999 62.7923 34.4437C62.1902 32.7941 60.9433 31.3646 59.1994 30.5539L59.1858 30.548L49.1501 25.9056C48.2137 25.4772 47.2258 25.2683 46.2487 25.2577C46.1673 26.0012 46.2406 26.769 46.4854 27.5144C46.8773 28.7086 47.6638 29.7018 48.6734 30.3767L48.7982 30.4577C49.2721 29.6234 50.0315 29.0276 50.8981 28.7283C51.8338 28.4067 52.899 28.4298 53.8672 28.878L53.9235 28.9063C54.8626 29.3591 55.5339 30.1341 55.8593 31.0265C56.1909 31.9347 56.1665 32.9687 55.7068 33.9079L55.6932 33.9349C55.2294 34.8649 54.4246 35.5279 53.4957 35.8482C52.562 36.1705 51.4975 36.1467 50.5312 35.6999C49.5583 35.2484 48.8666 34.4602 48.5344 33.5507C48.3683 33.0966 48.2917 32.6109 48.314 32.1205ZM63.5558 41.4614L52.5023 64.0408C53.2339 64.9002 54.213 65.5006 55.2877 65.7906C56.4879 66.1149 57.8121 66.0516 59.0482 65.5309L66.7881 62.2659C68.1943 61.6682 69.2284 60.561 69.7566 59.262C70.2834 57.9689 70.3098 56.486 69.7104 55.1244L63.5558 41.4614Z" fill="#ED913B"/>
</g>
<defs>
<filter id="filter0_d_223_443" x="0" y="0" width="100" height="100" filterUnits="userSpaceOnUse" color-interpolation-filters="sRGB">
<feFlood flood-opacity="0" result="BackgroundImageFix"/>
<feColorMatrix in="SourceAlpha" type="matrix" values="0 0 0 0 0 0 0 0 0 0 0 0 0 0 0 0 0 0 127 0" result="hardAlpha"/>
<feOffset dy="4"/>
<feGaussianBlur stdDeviation="5"/>
<feComposite in2="hardAlpha" operator="out"/>
<feColorMatrix type="matrix" values="0 0 0 0 0.929412 0 0 0 0 0.568627 0 0 0 0 0.231373 0 0 0 0.2 0"/>
<feBlend mode="normal" in2="BackgroundImageFix" result="effect1_dropShadow_223_443"/>
<feBlend mode="normal" in="SourceGraphic" in2="effect1_dropShadow_223_443" result="shape"/>
</filter>
</defs>
</svg>
