<svg width="100" height="100" viewBox="0 0 100 100" fill="none" xmlns="http://www.w3.org/2000/svg">
<g filter="url(#filter0_d_223_1076)">
<rect x="10" y="6" width="80" height="80" rx="40" fill="white"/>
<path d="M63.3327 33.2119H59.9993C59.4993 33.2119 59.166 33.5441 59.166 34.0424C59.166 34.5407 59.4993 34.8729 59.9993 34.8729H63.3327C63.8327 34.8729 64.166 34.5407 64.166 34.0424C64.166 33.5441 63.8327 33.2119 63.3327 33.2119Z" fill="#ED913B"/>
<path d="M65.8337 29.8896H60.0003C59.5003 29.8896 59.167 30.2219 59.167 30.7202C59.167 31.2185 59.5003 31.5507 60.0003 31.5507H65.8337C66.3337 31.5507 66.667 31.2185 66.667 30.7202C66.667 30.2219 66.3337 29.8896 65.8337 29.8896Z" fill="#ED913B"/>
<path d="M50.8333 25.7373H48.3333C47.8333 25.7373 47.5 26.0695 47.5 26.5678C47.5 27.0661 47.8333 27.3983 48.3333 27.3983H50.8333C51.3333 27.3983 51.6667 27.0661 51.6667 26.5678C51.6667 26.0695 51.3333 25.7373 50.8333 25.7373Z" fill="#ED913B"/>
<path d="M72.5 25.7373H57.5V24.9068C57.5 23.4949 56.4167 22.4153 55 22.4153H46.6667C44.8333 22.4153 44.1667 23.9102 44.1667 24.9068V29.0594C44.1667 30.3882 45.25 31.5509 46.6667 31.5509H48L49.9167 33.461L33.25 36.617C33.25 36.617 31.0833 37.0322 29.4167 39.1916C29.3333 39.1916 29.25 39.1916 29.1667 39.1916C27.75 39.4407 25 41.1017 25 45.7526C25 50.4034 27.6667 52.0644 29.1667 52.3136C29.25 52.3136 29.25 52.3136 29.3333 52.3136H29.4167C30.1667 53.3102 31.0833 53.9746 31.75 54.3068C31.75 54.3899 31.8333 54.4729 31.9167 54.556L43.5833 69.5051C43.6667 69.5882 43.75 69.6712 43.8333 69.6712C44.5 70.2526 45.4167 70.5848 46.3333 70.5848C48.4167 70.5848 50.0833 68.9238 50.0833 66.8475C50.0833 65.9339 49.75 65.1034 49.1667 64.356C49.1667 64.2729 49.0833 64.2729 49.0833 64.1899L42.75 56.5492L59.9167 59.7882C60 59.7882 60 59.7882 60.0833 59.7882C60.1667 59.7882 60.1667 59.7882 60.25 59.7882C60.3333 59.7882 60.4167 59.7882 60.5 59.7882C64.5 59.7882 67.5833 53.5594 67.5833 45.6695C67.5833 43.9255 67.4167 42.1814 67.1667 40.6865L68.8333 39.0255H72.5C73.8333 39.0255 75 37.9458 75 36.5339V28.2288C75 27.2322 74.3333 25.7373 72.5 25.7373ZM55.6667 51.4831C55.25 49.8221 55 47.8288 55 45.6695C55 43.5102 55.25 41.517 55.6667 39.856C55.75 39.856 55.75 39.856 55.8333 39.856C57.6667 39.856 59.1667 42.5136 59.1667 45.6695C59.1667 48.8255 57.6667 51.4831 55.8333 51.4831C55.75 51.4831 55.75 51.4831 55.6667 51.4831ZM48.3333 29.8899H46.6667C46.25 29.8899 45.8333 29.5577 45.8333 29.0594V24.9068C45.8333 24.4916 46 24.0763 46.6667 24.0763H55C55.5 24.0763 55.8333 24.4085 55.8333 24.9068V29.0594C55.8333 29.5577 55.5 29.8899 55 29.8899H52.5C52 29.8899 51.6667 30.2221 51.6667 30.7204V32.8797L48.9167 30.139C48.75 29.9729 48.5833 29.8899 48.3333 29.8899ZM53.3333 31.5509H55V32.4644L53.3333 32.7966V31.5509ZM51.9167 35.4543C52.0833 35.6204 52.25 35.7034 52.5 35.7034C52.5833 35.7034 52.75 35.7034 52.8333 35.6204C53.1667 35.4543 53.3333 35.2051 53.3333 34.8729V34.4577L55 34.1255V36.4509C54 38.8594 53.3333 42.0983 53.3333 45.5865C53.3333 50.5695 54.5833 54.8882 56.5 57.3797L40.3333 54.3899C39.0833 52.0644 38.4167 48.9085 38.4167 45.6695C38.4167 42.4305 39.0833 39.2746 40.3333 36.9492L51.3333 34.8729L51.9167 35.4543ZM26.6667 45.6695C26.6667 43.3441 27.4167 42.0983 28.1667 41.4339C27.75 42.5966 27.5 43.9255 27.5 45.6695C27.5 47.3305 27.75 48.7424 28.1667 49.8221C27.4167 49.2407 26.6667 47.9949 26.6667 45.6695ZM29.1667 45.6695C29.1667 39.0255 33.3333 38.1949 33.5 38.1949L38.25 37.2814C37.25 39.6899 36.6667 42.5966 36.6667 45.6695C36.6667 48.7424 37.25 51.6492 38.25 54.0577L33.4167 53.1441C33.4167 53.1441 29.1667 52.3966 29.1667 45.6695ZM40.1667 56.1339L47.5 65.1034C47.5 65.1865 47.5833 65.2695 47.6667 65.3526C48.0833 65.7678 48.25 66.2661 48.25 66.8475C48.25 68.0102 47.3333 68.9238 46.1667 68.9238C45.5833 68.9238 45.0833 68.6746 44.6667 68.3424L44.5833 68.2593L34.3333 54.9712L40.1667 56.1339ZM65.8333 45.6695C65.8333 53.1441 63 58.1271 60.4167 58.1271C58.8333 58.1271 57.1667 56.3 56.0833 53.1441C58.75 52.8949 60.8333 49.739 60.8333 45.6695C60.8333 42.7627 59.75 40.2712 58.1667 39.0255H63.3333V42.3475C63.3333 42.6797 63.5 43.0119 63.8333 43.0949C63.9167 43.178 64.0833 43.178 64.1667 43.178C64.4167 43.178 64.5833 43.0949 64.75 42.9288L65.5833 42.0983C65.75 43.178 65.8333 44.4238 65.8333 45.6695ZM73.3333 36.5339C73.3333 36.9492 73 37.3644 72.5 37.3644H68.3333C68.0833 37.3644 67.9167 37.4475 67.75 37.6136L65 40.3543V38.1949C65 37.6966 64.6667 37.3644 64.1667 37.3644H57.5C57 37.3644 56.6667 37.0322 56.6667 36.5339V30.8865C57.1667 30.4712 57.5 29.8068 57.5 29.0594V27.3983H72.5C73.1667 27.3983 73.3333 27.8136 73.3333 28.2288V36.5339Z" fill="#ED913B"/>
</g>
<defs>
<filter id="filter0_d_223_1076" x="0" y="0" width="100" height="100" filterUnits="userSpaceOnUse" color-interpolation-filters="sRGB">
<feFlood flood-opacity="0" result="BackgroundImageFix"/>
<feColorMatrix in="SourceAlpha" type="matrix" values="0 0 0 0 0 0 0 0 0 0 0 0 0 0 0 0 0 0 127 0" result="hardAlpha"/>
<feOffset dy="4"/>
<feGaussianBlur stdDeviation="5"/>
<feComposite in2="hardAlpha" operator="out"/>
<feColorMatrix type="matrix" values="0 0 0 0 0.929412 0 0 0 0 0.568627 0 0 0 0 0.231373 0 0 0 0.2 0"/>
<feBlend mode="normal" in2="BackgroundImageFix" result="effect1_dropShadow_223_1076"/>
<feBlend mode="normal" in="SourceGraphic" in2="effect1_dropShadow_223_1076" result="shape"/>
</filter>
</defs>
</svg>
