<svg width="100" height="101" viewBox="0 0 100 101" fill="none" xmlns="http://www.w3.org/2000/svg">
<g filter="url(#filter0_d_223_109)">
<rect x="10" y="6.5" width="80" height="80" rx="40" fill="white"/>
<path d="M72.731 41.5785C72.5035 39.281 71.6336 37.0891 70.2168 35.2432C68.8 33.3973 66.8909 31.9686 64.6989 31.1138C60.5275 29.5336 55.988 30.8879 52.8119 32.8479C51.7446 29.3491 49.2375 25.4421 45.0202 23.981C40.5969 22.4491 35.291 23.5881 31.8171 26.8167C30.3363 28.1308 29.271 29.832 28.747 31.7194C28.223 33.6067 28.2622 35.6013 28.8598 37.4676C29.3781 38.9658 30.0721 40.4002 30.9281 41.7421L31.2589 42.3092C32.4242 44.3295 33.4811 46.4078 34.4254 48.5356C34.7134 48.6378 34.9889 48.7708 35.2469 48.9322C35.6766 49.2062 36.1259 49.4595 36.5852 49.7012C35.4359 46.9093 34.1011 44.1939 32.5895 41.5723L32.255 40.9989C31.4584 39.7566 30.811 38.4285 30.3256 37.0411C29.8137 35.4388 29.7813 33.7268 30.2323 32.1071C30.6833 30.4875 31.5988 29.0279 32.8706 27.9009C34.4 26.4965 36.2886 25.522 38.3372 25.0802C40.3857 24.6384 42.5181 24.7456 44.5095 25.3906C48.5509 26.7911 50.82 30.8519 51.5958 34.1857C51.6283 34.3077 51.6903 34.4204 51.7766 34.5141C51.8628 34.6078 51.9709 34.6799 52.0915 34.7242C52.2122 34.7686 52.342 34.7839 52.4701 34.7689C52.5981 34.754 52.7205 34.7091 52.8271 34.6382C55.6764 32.6158 60.1457 30.9936 64.1471 32.5088C66.0663 33.2762 67.7366 34.5385 68.9802 36.1611C70.2239 37.7838 70.9942 39.706 71.2092 41.7231C71.3524 42.9311 71.2391 44.155 70.8763 45.3181C70.5136 46.4813 69.9092 47.5587 69.1011 48.4828C69.1694 48.5111 69.2395 48.5327 69.3067 48.5648C69.7056 48.7582 70.0702 49.013 70.3866 49.3193C71.2906 48.2502 71.9642 47.0133 72.3671 45.6831C72.7699 44.3529 72.8937 42.9567 72.731 41.5785Z" fill="#ED913B"/>
<path d="M56.3956 47.3037C56.4166 46.1067 56.0728 44.9307 55.4081 43.9255C54.7435 42.9202 53.788 42.1312 52.6633 41.6589C51.5387 41.1866 50.2958 41.0525 49.0929 41.2734C47.89 41.4944 46.7816 42.0606 45.9088 42.8999C45.036 43.7391 44.4383 44.8135 44.1919 45.9861C43.9454 47.1588 44.0613 48.3767 44.5248 49.4846C44.9884 50.5926 45.7785 51.5406 46.7947 52.2078C47.8109 52.8751 49.0071 53.2314 50.231 53.2314C51.8515 53.243 53.4106 52.6255 54.5663 51.5143C55.7219 50.403 56.3798 48.8888 56.3956 47.3037ZM45.5957 47.3037C45.5746 46.4026 45.8286 45.5157 46.3252 44.7564C46.8218 43.997 47.5385 43.3997 48.3837 43.0405C49.2289 42.6814 50.1644 42.5768 51.0707 42.74C51.977 42.9032 52.813 43.3269 53.472 43.957C54.131 44.5871 54.5831 45.395 54.7706 46.2775C54.9581 47.16 54.8725 48.0772 54.5247 48.912C54.1769 49.7467 53.5827 50.4611 52.818 50.9641C52.0532 51.467 51.1526 51.7356 50.231 51.7356C49.016 51.7477 47.8456 51.2879 46.9767 50.457C46.1077 49.6262 45.6111 48.4922 45.5957 47.3037Z" fill="#ED913B"/>
<path d="M70.1074 52.1496L70.1029 52.062C70.0774 51.6075 69.9278 51.168 69.6697 50.7892C69.4115 50.4105 69.0544 50.1063 68.6353 49.9085C68.2234 49.7055 67.7628 49.6159 67.3029 49.6494C66.843 49.683 66.4011 49.8383 66.0245 50.0987C58.1642 55.494 42.8009 55.5356 34.4113 50.1849C34.0133 49.9307 33.5526 49.7861 33.0777 49.7664C32.6029 49.7467 32.1313 49.8525 31.7128 50.0728C31.3027 50.2829 30.9592 50.5986 30.7193 50.9858C30.4794 51.373 30.3522 51.817 30.3516 52.2698C30.3517 52.6258 30.4281 52.9778 30.5761 53.3031C30.724 53.6283 30.94 53.9196 31.2102 54.1581C34.0151 56.6596 39.1247 57.9597 42.9674 58.7266V70.4438C42.9675 70.6422 43.0481 70.8324 43.1915 70.9726C43.3348 71.1129 43.5293 71.1917 43.732 71.1917H43.7332L55.6005 71.1764C55.8031 71.1761 55.9973 71.0972 56.1404 70.957C56.2836 70.8167 56.364 70.6267 56.364 70.4285V58.9501C62.2586 57.9589 66.5685 56.3642 69.1807 54.2063C69.4878 53.9574 69.7314 53.6419 69.8922 53.2849C70.0531 52.928 70.1267 52.5393 70.1074 52.1496ZM68.1944 53.0633C65.7031 55.1215 61.4246 56.6403 55.4777 57.5781C55.2983 57.6064 55.1351 57.6963 55.0173 57.8316C54.8995 57.9669 54.8348 58.1388 54.8348 58.3165V69.6817L44.4966 69.6949V58.1138C44.4967 57.9405 44.4352 57.7725 44.3226 57.6387C44.2101 57.5048 44.0534 57.4134 43.8795 57.3801C40.1644 56.6651 34.9156 55.4384 32.2407 53.0531C32.1287 52.9558 32.0389 52.8368 31.9769 52.7035C31.9149 52.5702 31.8821 52.4257 31.8808 52.2792C31.8814 52.0955 31.9335 51.9155 32.0316 51.7587C32.1296 51.602 32.2697 51.4746 32.4367 51.3904C32.6129 51.2959 32.8122 51.2504 33.013 51.2588C33.2137 51.2672 33.4083 51.3291 33.5757 51.4379C42.4123 57.0723 58.6074 57.0164 66.9026 51.3228C67.0563 51.2181 67.2362 51.1562 67.4231 51.1438C67.61 51.1314 67.7969 51.1689 67.9636 51.2523C68.1381 51.3316 68.2872 51.4557 68.395 51.6114C68.5029 51.7671 68.5654 51.9486 68.5759 52.1365L68.5804 52.2241C68.5869 52.3837 68.5555 52.5426 68.4885 52.6882C68.4215 52.8338 68.3208 52.9622 68.1944 53.0633Z" fill="#ED913B"/>
<path d="M39.5269 27.0352C37.4997 27.0374 35.5562 27.826 34.1228 29.2281C32.6894 30.6302 31.8831 32.5313 31.8809 34.5141C31.8809 34.7125 31.9614 34.9027 32.1048 35.043C32.2482 35.1832 32.4427 35.262 32.6455 35.262C32.8482 35.262 33.0427 35.1832 33.1861 35.043C33.3295 34.9027 33.4101 34.7125 33.4101 34.5141C33.4119 32.9278 34.057 31.4071 35.2037 30.2854C36.3504 29.1637 37.9051 28.5328 39.5269 28.5309C39.7296 28.5309 39.9241 28.4522 40.0675 28.3119C40.2109 28.1716 40.2915 27.9814 40.2915 27.7831C40.2915 27.5847 40.2109 27.3945 40.0675 27.2542C39.9241 27.114 39.7296 27.0352 39.5269 27.0352Z" fill="#ED913B"/>
</g>
<defs>
<filter id="filter0_d_223_109" x="0" y="0.5" width="100" height="100" filterUnits="userSpaceOnUse" color-interpolation-filters="sRGB">
<feFlood flood-opacity="0" result="BackgroundImageFix"/>
<feColorMatrix in="SourceAlpha" type="matrix" values="0 0 0 0 0 0 0 0 0 0 0 0 0 0 0 0 0 0 127 0" result="hardAlpha"/>
<feOffset dy="4"/>
<feGaussianBlur stdDeviation="5"/>
<feComposite in2="hardAlpha" operator="out"/>
<feColorMatrix type="matrix" values="0 0 0 0 0.929412 0 0 0 0 0.568627 0 0 0 0 0.231373 0 0 0 0.2 0"/>
<feBlend mode="normal" in2="BackgroundImageFix" result="effect1_dropShadow_223_109"/>
<feBlend mode="normal" in="SourceGraphic" in2="effect1_dropShadow_223_109" result="shape"/>
</filter>
</defs>
</svg>
