<?xml version="1.0" encoding="utf-8"?>
<!-- Generator: Adobe Illustrator 25.2.1, SVG Export Plug-In . SVG Version: 6.00 Build 0)  -->
<svg version="1.1" id="Шар_1" xmlns="http://www.w3.org/2000/svg" xmlns:xlink="http://www.w3.org/1999/xlink" x="0px" y="0px"
	 viewBox="0 0 48 48" style="enable-background:new 0 0 48 48;" xml:space="preserve">
<style type="text/css">
	.st0{fill:#397373;}
	.st1{fill:#EE913B;}
</style>
<path class="st0" d="M47.89,27.17c-0.18-2.85-0.65-5.62-1.72-8.28c-0.97-2.43-2.39-4.68-4.17-6.6c-1.78-1.91-3.91-3.48-6.23-4.66
	c-2.48-1.26-5.16-2.08-7.91-2.53c-2.3-0.37-7.05-0.17-7.1-0.13c-0.04,0.02-1.02,1.49-1.36,2.25c-1.49,3.39-0.86,7.18,1.33,10.1
	c1.43,1.92,3.31,3.51,5.47,4.55c0.93,0.44,1.91,0.8,2.94,0.98c-1.04-0.1-2.06-0.38-3.04-0.75c-4.14-1.58-7.93-5.23-8.82-9.69
	c-0.35-1.75-0.24-3.46,0.36-5.13c0.16-0.45,0.35-0.89,0.55-1.32c-0.66,0.1-1.32,0.23-1.98,0.36c-3.14,0.64-6.18,2.04-8.68,4.04
	c-3.31,2.64-5.22,6.52-6.31,10.53c-0.7,2.57-1.07,5.23-1.18,7.89C0,29.64,0,30.49,0,31.33c0.02,0.94,0.07,1.87,0.14,2.79
	c0.28,3.84,0.91,7.7,1.93,11.42c0.04,0.16,0.09,0.31,0.13,0.47h5.54v-3.76c0-2,1.6-3.73,3.57-3.73c0.99,0,1.88,0.41,2.53,1.06
	c0.65,0.65,1.04,1.67,1.04,2.67v3.76h5.5v-8.5c0-2,1.59-3.62,3.57-3.62c0.99,0,1.88,0.4,2.52,1.06c0.65,0.65,1.04,1.56,1.04,2.56
	v8.5h5.47c0,0,0-11.54,0-11.54c0-2.25,1.51-4.3,3.67-4.96c1.32-0.4,3.02-0.31,4.25,0.34c0.67,0.35,1.22,0.91,1.61,1.55
	c0.48,0.78,0.68,1.73,0.78,2.62c0.18,1.57,0.21,3.23-0.03,4.8c-0.12,0.77-0.37,1.93-1.15,2.3c-0.32,0.15-0.68,0.11-1-0.03
	c-0.43-0.18-0.8-0.49-1.14-0.8L37.99,43c2.24,1.87,3.99,2.46,5.35,2.18C48.23,44.17,48.19,32.01,47.89,27.17z M40.06,21.92
	c-0.26,1.46-2.55,1.11-2.36-0.36C37.86,19.96,40.39,20.32,40.06,21.92z"/>
<path class="st1" d="M44.62,9.2c-0.14,0.67-0.89,1.17-2.06,1.46c-0.16,0.04-0.34,0.08-0.52,0.11c-0.22,0.04-0.45,0.07-0.69,0.1
	c-1.92,0.22-4.51,0.07-7.28-0.51c-2.95-0.62-5.5-1.6-7.17-2.66c-0.58-0.37-1.05-0.74-1.4-1.11c-0.11-0.12-0.2-0.23-0.28-0.35
	C25.1,6.07,25,5.89,24.94,5.72c-0.09-0.24-0.11-0.46-0.06-0.68c0.02-0.09,0.04-0.17,0.08-0.24c0.14-0.3,0.41-0.54,0.69-0.71
	c0.52-0.32,1.13-0.49,1.73-0.6c0.82-0.16,1.65-0.21,2.48-0.22c1.01-0.01,2.02,0.06,3.02,0.18c0.6,0.07,1.2,0.17,1.8,0.28
	c0.01-0.06,0.02-0.13,0.03-0.19c0.2-0.95,0.77-1.64,1.26-1.53c0.5,0.1,0.74,0.96,0.54,1.91c-0.01,0.07-0.03,0.14-0.05,0.2
	c0.64,0.16,1.35,0.34,1.35,0.35c0.6,0.18,1.2,0.38,1.79,0.6c0.45,0.17,0.87,0.37,1.31,0.55c0.79,0.37,1.57,0.78,2.27,1.3
	c0.49,0.36,0.98,0.8,1.27,1.34C44.61,8.56,44.69,8.89,44.62,9.2z"/>
</svg>
